<svg xmlns="http://www.w3.org/2000/svg" viewBox="0 0 594.44 479.64"><defs><style>.cls-1{fill:#fff;}</style></defs><title>filter</title><g id="Layer_2" data-name="Layer 2"><g id="Layer_5" data-name="Layer 5"><rect class="cls-1" x="238.58" y="11.33" width="355.86" height="57" rx="17.79" ry="17.79"/><rect class="cls-1" x="238.58" y="144.67" width="286.86" height="57" rx="17.79" ry="17.79"/><rect class="cls-1" x="238.58" y="278" width="217.85" height="57" rx="17.79" ry="17.79"/><rect class="cls-1" x="238.58" y="411.33" width="149.85" height="57" rx="17.79" ry="17.79"/><path class="cls-1" d="M188.21,343.67h-58V18.35A18.36,18.36,0,0,0,111.83,0h-21A18.36,18.36,0,0,0,72.52,18.35V343.67H16.13A16.1,16.1,0,0,0,3.72,370l86,104.05a15.31,15.31,0,0,0,23.54.09l87.32-104A16.09,16.09,0,0,0,188.21,343.67Z"/></g></g></svg>