<svg xmlns="http://www.w3.org/2000/svg" viewBox="0 0 102 102"><defs><style>.cls-1{fill:#fff;}.cls-2{opacity:0.2;}</style></defs><title>instagram</title><g id="Layer_2" data-name="Layer 2"><g id="Layer_1-2" data-name="Layer 1"><path class="cls-1" d="M76.73,31.54a10.92,10.92,0,0,0-6.27-6.27,18.42,18.42,0,0,0-6.13-1.13C60.85,24,59.81,24,51,24h0c-8.81,0-9.86,0-13.34.19a18.41,18.41,0,0,0-6.12,1.13,10.92,10.92,0,0,0-6.27,6.27,18.16,18.16,0,0,0-1.13,6.13C24,41.15,24,42.19,24,51s0,9.86.19,13.34a18.15,18.15,0,0,0,1.13,6.12,10.92,10.92,0,0,0,6.27,6.27,18.15,18.15,0,0,0,6.12,1.13c3.48.16,4.53.19,13.34.19s9.86,0,13.33-.19a18.16,18.16,0,0,0,6.13-1.13,10.94,10.94,0,0,0,6.27-6.27,18.41,18.41,0,0,0,1.13-6.12c.16-3.48.19-4.53.19-13.34s0-9.85-.19-13.33A18.16,18.16,0,0,0,76.73,31.54ZM51,68A17,17,0,1,1,68,51,17,17,0,0,1,51,68ZM68.62,37.34a4,4,0,1,1,4-4A4,4,0,0,1,68.62,37.34Z"/><circle class="cls-1" cx="51" cy="51" r="11" transform="matrix(0.18, -0.98, 0.98, 0.18, -8.35, 91.99)"/><path class="cls-1" d="M51,0a51,51,0,1,0,51,51A51,51,0,0,0,51,0ZM83.8,64.61a24.39,24.39,0,0,1-1.53,8,16.92,16.92,0,0,1-9.65,9.65,24.39,24.39,0,0,1-8,1.53C61.09,84,60,84,51,84s-10.09,0-13.61-.2a24.39,24.39,0,0,1-8-1.53,16.94,16.94,0,0,1-9.65-9.65,24.39,24.39,0,0,1-1.53-8C18,61.09,18,60,18,51s0-10.09.2-13.61a24.39,24.39,0,0,1,1.53-8,16.94,16.94,0,0,1,9.65-9.65,24.39,24.39,0,0,1,8-1.53C40.91,18,42,18,51,18h0c9,0,10.09,0,13.61.2a24.39,24.39,0,0,1,8,1.53,16.94,16.94,0,0,1,9.65,9.65,24.39,24.39,0,0,1,1.53,8C84,40.91,84,42,84,51S84,61.09,83.8,64.61Z"/><polygon points="51 18 51 18 51 18 51 18"/><path class="cls-2" d="M82.27,29.38a16.94,16.94,0,0,0-9.65-9.65,24.39,24.39,0,0,0-8-1.53C61.09,18,60,18,51,18s-10.09,0-13.61.2a24.39,24.39,0,0,0-8,1.53,16.94,16.94,0,0,0-9.65,9.65,24.39,24.39,0,0,0-1.53,8C18,40.91,18,42,18,51s0,10.09.2,13.61a24.39,24.39,0,0,0,1.53,8,16.94,16.94,0,0,0,9.65,9.65,24.39,24.39,0,0,0,8,1.53C40.91,84,42,84,51,84s10.09,0,13.61-.2a24.39,24.39,0,0,0,8-1.53,16.92,16.92,0,0,0,9.65-9.65,24.39,24.39,0,0,0,1.53-8C84,61.09,84,60,84,51s0-10.09-.2-13.61A24.39,24.39,0,0,0,82.27,29.38Zm-4.41,35a18.41,18.41,0,0,1-1.13,6.12,10.94,10.94,0,0,1-6.27,6.27,18.16,18.16,0,0,1-6.13,1.13c-3.47.16-4.52.19-13.33.19s-9.86,0-13.34-.19a18.15,18.15,0,0,1-6.12-1.13,10.92,10.92,0,0,1-6.27-6.27,18.15,18.15,0,0,1-1.13-6.12C24,60.86,24,59.81,24,51s0-9.85.19-13.33a18.16,18.16,0,0,1,1.13-6.13,10.92,10.92,0,0,1,6.27-6.27,18.41,18.41,0,0,1,6.12-1.13C41.14,24,42.19,24,51,24h0c8.81,0,9.85,0,13.33.19a18.42,18.42,0,0,1,6.13,1.13,10.92,10.92,0,0,1,6.27,6.27,18.16,18.16,0,0,1,1.13,6.13c.16,3.48.19,4.52.19,13.33S78,60.86,77.86,64.34Z"/><path class="cls-2" d="M51,34.05A17,17,0,1,0,68,51,17,17,0,0,0,51,34.05Zm0,28A11,11,0,1,1,62,51,11,11,0,0,1,51,62Z"/><path class="cls-2" d="M68.62,29.42a4,4,0,1,0,4,4A4,4,0,0,0,68.62,29.42Z"/></g></g></svg>