<svg xmlns="http://www.w3.org/2000/svg" viewBox="0 0 43.46 55.52"><defs><style>.cls-1{fill:#278b5a;}.cls-2{fill:#fff;}</style></defs><title>logo</title><g id="Layer_2" data-name="Layer 2"><g id="Layer_5" data-name="Layer 5"><path class="cls-1" d="M41.58,44.66c-.8,0-.9.84-.94,1.18a9.87,9.87,0,0,1-1.81,4.21,5.93,5.93,0,0,1-3.94,1.86,2.76,2.76,0,0,0-.48-.25c-.59-.23-1.2-.4-1.77-.68a3.2,3.2,0,0,1-1.77-2.38,12.35,12.35,0,0,1-.21-2,28,28,0,0,0-.5-4c-.16-1-.29-2-.41-3a5.15,5.15,0,0,1,0-.88,5.81,5.81,0,0,0-.55-2.33,17.88,17.88,0,0,0-1.07-2.09c-.39-.71-.76-1.44-1.21-2.1s-.79-1.1-1.19-1.63A19.85,19.85,0,0,0,34,28.68a11.36,11.36,0,0,0,1.23,1.07.68.68,0,0,0,.62,0,.41.41,0,0,0-.08-.66c-.08-.06-.1-.18-.16-.29.12,0,.19-.08.28-.1.44-.1.6-.05.73.39a7.88,7.88,0,0,1,.12,1.1,2.39,2.39,0,0,0,.09.66c.15.34.4.35.62.06a9.85,9.85,0,0,0,.57-.86,2.3,2.3,0,0,0,.28-2.31,10.68,10.68,0,0,0-.83-1.31,17,17,0,0,0,6-13.43A13,13,0,0,0,39.75,4.2C38.52,3.05,35.25,0,26.08,0h-1.3c-1.55,0-4.63.11-6.47.17L17,.21l-1,0C14.45.12,11.23,0,8.78,0,8.35,0,7.34,0,7.34.86a.78.78,0,0,0,.86.73,13.11,13.11,0,0,1,2.41.21c2.3.48,2.75,1.58,2.88,3.86.12,1.86.14,3.53.14,10-.18.45-.37.89-.58,1.32a2.91,2.91,0,0,1-1.26,1.36,7.75,7.75,0,0,0-2,1.39,8.44,8.44,0,0,0-2.28,4.11,7.58,7.58,0,0,1-1.2,2.83A3.55,3.55,0,0,1,4,28.14a5,5,0,0,0-1.37.6.46.46,0,0,0-.23.6.52.52,0,0,0,.58.33l.89-.08a3,3,0,0,1-1.78,1.14c-.59.14-1.17.31-1.75.5a.58.58,0,0,0-.36.34.64.64,0,0,0,.22.48A3.25,3.25,0,0,0,3,32.42a3.28,3.28,0,0,1,1.86-.2,1.71,1.71,0,0,0,.87,0,3.69,3.69,0,0,0,1.73-1,13,13,0,0,0,2.05-2.14c.85-1.18,1.66-2.4,2.52-3.59.37-.49.82-.92,1.24-1.38l.07.06a14.71,14.71,0,0,0-.77,1.47,12.34,12.34,0,0,0-.74,2.25,5.81,5.81,0,0,0,.1,2.62,6.29,6.29,0,0,0,1.35,2.66,4.92,4.92,0,0,1,.41.52V34c0,3.78,0,7.28-.07,10.16l-1,1.2a11.15,11.15,0,0,1-3,2.76,2.73,2.73,0,0,0-.74.56,1.29,1.29,0,0,0,.06,1.6c.6,1.09,1.27,2.14,1.95,3.2l0,0a9.1,9.1,0,0,1-1.59.18c-.64,0-.87.39-.87.73,0,.86,1,.86,1.45.86,1.66,0,4.74-.13,6.05-.18l.55,0,.41,0,.8,0c1.35,0,3.86.15,6.43.18h.23l2.23.06c2.58.07,5.78.16,9.79.16s4.27-.3,4.84-2.17A46.38,46.38,0,0,0,42.29,46C42.29,45.42,42.29,44.66,41.58,44.66ZM25.92,47.2a11.77,11.77,0,0,0,.79,1.73A3.66,3.66,0,0,1,27.08,52c-3.28-.18-4.48-.7-5.28-1.51s-1.09-2.63-1.3-5.9a3.14,3.14,0,0,0,.71-1.48,24.36,24.36,0,0,0,.25-2.71c.07-.71.12-1.43.23-2.13,0-.29.28-.32.46-.07A14.09,14.09,0,0,1,23.27,40a11.25,11.25,0,0,1,.51,1.55c.28.81.56,1.61.85,2.41.17.47.33.93.51,1.39Q25.52,46.27,25.92,47.2ZM30,20.85a3.89,3.89,0,0,1-2-3.37,12.15,12.15,0,0,0-.43-3.11,1.44,1.44,0,0,1,0-.87c.19-.52.5-1,.72-1.49a10,10,0,0,0,.52-1.57,5.07,5.07,0,0,0-.89-3.86A2.28,2.28,0,0,0,26,5.5a4.09,4.09,0,0,0-2,.41,4,4,0,0,0-1.62,1.42c-.28.41-.48.88-.73,1.31A3.22,3.22,0,0,1,20.31,9.9c0-2.07.06-3.12.13-4.24A6.06,6.06,0,0,1,21,3a11,11,0,0,1,2.53-.26h.33a12,12,0,0,1,9.38,3.54c4,4,4,9.23,4,11A11,11,0,0,1,35,23.89a10.71,10.71,0,0,0-2.37-1.68C31.76,21.77,30.84,21.36,30,20.85Zm1,6.47a13.12,13.12,0,0,1-6,1.41h-.59a1.54,1.54,0,0,1-.19-1,4.4,4.4,0,0,1,.58-1.17,2,2,0,0,1,2.85-.83c.87.44,1.72.92,2.61,1.32C30.49,27.13,30.73,27.23,31,27.32Zm9.67,25.87c-.45,1.48-.53,1.75-4.29,1.75-4,0-7.2-.08-9.77-.16l-2.22-.06h-.25c-2.57,0-5.07-.12-6.41-.18l-.83,0-.43,0-.55,0c-1.31.06-4.38.18-6,.18-.87,0-.87-.18-.87-.28s0-.15.29-.15a10.7,10.7,0,0,0,2-.25l.25,0c1.66-.33,2-2.11,2.33-4.23.18-1.5.27-3.63.32-6.24s0-5.51,0-8.84V14.34c0-5.4,0-7-.14-8.71-.15-2.48-.71-3.84-3.34-4.4A13.85,13.85,0,0,0,8.2,1c-.08,0-.29,0-.29-.15s0-.29.87-.29c2.44,0,5.65.12,7.19.19l1,0,1.37,0C20.17.68,23.24.57,24.78.57h1.3C35,.57,38.17,3.51,39.35,4.62A12.3,12.3,0,0,1,42.88,13a16.49,16.49,0,0,1-5.74,13,16.08,16.08,0,0,1-3.63,2.27A19.34,19.34,0,0,1,25.36,30h-.08a10,10,0,0,1-1.37-.07h-.07c-.2,0-.5-.07-.5-.22s.06-.35,1.45-.36H25a13.55,13.55,0,0,0,6.71-1.73,12.32,12.32,0,0,0,3.76-3.3,11.66,11.66,0,0,0,2.34-7c0-1.77,0-7.14-4.14-11.36a12.69,12.69,0,0,0-9.8-3.7h-.32a11.35,11.35,0,0,0-2.8.3l-.1,0-.06.09a6.25,6.25,0,0,0-.73,3c-.07,1.17-.11,2.27-.13,4.54s0,5.53,0,11.11V34.16c0,4.93.06,8.45.24,11,.23,3.48.68,5.06,1.43,5.81,1,1,2.48,1.5,5.48,1.67,1,.06,2.1.08,3.41.08a29.75,29.75,0,0,0,5.16-.29,6.21,6.21,0,0,0,3.83-2,10.41,10.41,0,0,0,1.94-4.49c.08-.68.25-.68.37-.68h.05s.09.18.09.79A47.22,47.22,0,0,1,40.65,53.19Z"/><path class="cls-2" d="M41.63,45.24s.09.18.09.79a47.22,47.22,0,0,1-1.07,7.16c-.45,1.48-.53,1.75-4.29,1.75-4,0-7.2-.08-9.77-.16l-2.22-.06h-.25c-2.57,0-5.07-.12-6.41-.18l-.83,0-.43,0-.55,0c-1.31.06-4.38.18-6,.18-.87,0-.87-.18-.87-.28s0-.15.29-.15a10.7,10.7,0,0,0,2-.25l.25,0c1.66-.33,2-2.11,2.33-4.23.18-1.5.27-3.63.32-6.24s0-5.51,0-8.84V14.34c0-5.4,0-7-.14-8.71-.15-2.48-.71-3.84-3.34-4.4A13.85,13.85,0,0,0,8.2,1c-.08,0-.29,0-.29-.15s0-.29.87-.29c2.44,0,5.65.12,7.19.19l1,0,1.37,0C20.17.68,23.24.57,24.78.57h1.3C35,.57,38.17,3.51,39.35,4.62A12.3,12.3,0,0,1,42.88,13a16.49,16.49,0,0,1-5.74,13,16.08,16.08,0,0,1-3.63,2.27A19.34,19.34,0,0,1,25.36,30h-.08a10,10,0,0,1-1.37-.07h-.07c-.2,0-.5-.07-.5-.22s.06-.35,1.45-.36H25a13.55,13.55,0,0,0,6.71-1.73,12.32,12.32,0,0,0,3.76-3.3,11.66,11.66,0,0,0,2.34-7c0-1.77,0-7.14-4.14-11.36a12.69,12.69,0,0,0-9.8-3.7h-.32a11.35,11.35,0,0,0-2.8.3l-.1,0-.06.09a6.25,6.25,0,0,0-.73,3c-.07,1.17-.11,2.27-.13,4.54s0,5.53,0,11.11V34.16c0,4.93.06,8.45.24,11,.23,3.48.68,5.06,1.43,5.81,1,1,2.48,1.5,5.48,1.67,1,.06,2.1.08,3.41.08a29.75,29.75,0,0,0,5.16-.29,6.21,6.21,0,0,0,3.83-2,10.41,10.41,0,0,0,1.94-4.49c.08-.68.25-.68.37-.68Z"/></g></g></svg>