<svg xmlns="http://www.w3.org/2000/svg" viewBox="0 0 102 102"><defs><style>.cls-1{fill:#fff;}.cls-2{opacity:0.2;}</style></defs><title>redbubble</title><g id="Layer_2" data-name="Layer 2"><g id="Layer_1-2" data-name="Layer 1"><path class="cls-1" d="M51,0a51,51,0,1,0,51,51A51,51,0,0,0,51,0Zm.91,71.53a1.48,1.48,0,0,1-1,.36H20.47A1.47,1.47,0,0,1,19,70.42h0V33.58a1.47,1.47,0,0,1,1.47-1.47H34.71c8.89,0,14.2,4.78,14.2,12.81,0,5.34-2.68,9.53-7,11.23L52.05,69.44A1.49,1.49,0,0,1,51.91,71.53Zm20.35.36H57.59a1.46,1.46,0,0,1-1.47-1.47V33.58a1.47,1.47,0,0,1,1.47-1.47h13.6c10.22,0,12.36,6,12.36,11a9.94,9.94,0,0,1-2.31,6.93C85,51.64,87,55.12,87,60.16,87,67.51,81.49,71.89,72.26,71.89Z"/><path class="cls-2" d="M41.9,56.15c4.33-1.7,7-5.89,7-11.23,0-8-5.31-12.81-14.2-12.81H20.47A1.47,1.47,0,0,0,19,33.58V70.42h0a1.47,1.47,0,0,0,1.47,1.47H51a1.47,1.47,0,0,0,1.1-2.45Z"/><path class="cls-2" d="M81.24,50.09a9.94,9.94,0,0,0,2.31-6.93c0-5-2.14-11-12.36-11H57.59a1.47,1.47,0,0,0-1.47,1.47V70.42a1.46,1.46,0,0,0,1.47,1.47H72.26C81.49,71.89,87,67.51,87,60.16,87,55.12,85,51.64,81.24,50.09Z"/></g></g></svg>