<?xml version="1.0" encoding="utf-8"?>
<!-- Generator: Adobe Illustrator 22.1.0, SVG Export Plug-In . SVG Version: 6.00 Build 0)  -->
<svg version="1.1" id="Layer_1" xmlns="http://www.w3.org/2000/svg" xmlns:xlink="http://www.w3.org/1999/xlink" x="0px" y="0px"
	 viewBox="0 0 172.7 41.4" style="enable-background:new 0 0 172.7 41.4;" xml:space="preserve">
<style type="text/css">
	.st0{fill:#278B5A;}
	.st1{fill:#FFFFFF;}
</style>
<title>siteid</title>
<g id="Layer_2_1_">
	<g id="Layer_5">
		<path class="st0" d="M31,33.3c-0.6,0-0.7,0.6-0.7,0.9c-0.2,1.1-0.6,2.2-1.3,3.1c-0.8,0.8-1.9,1.3-3,1.4c-0.1-0.1-0.2-0.1-0.4-0.2
			c-0.4-0.2-0.9-0.3-1.3-0.5c-0.7-0.3-1.2-1-1.3-1.8c-0.1-0.5-0.1-1-0.2-1.5c0-1-0.2-2-0.4-3c-0.1-0.8-0.2-1.5-0.3-2.3
			c0-0.2,0-0.4,0-0.6c0-0.6-0.2-1.2-0.4-1.7c-0.2-0.5-0.5-1.1-0.8-1.6c-0.3-0.5-0.6-1.1-0.9-1.6c-0.3-0.4-0.6-0.8-0.9-1.2
			c2.1,0,4.3-0.5,6.2-1.4c0.3,0.3,0.6,0.6,0.9,0.8c0.1,0.1,0.3,0.1,0.5,0c0.1-0.1,0.1-0.3,0-0.4c0,0,0,0-0.1-0.1
			c-0.1,0-0.1-0.1-0.1-0.2l0.2-0.1c0.3-0.1,0.5,0,0.5,0.3c0,0.3,0.1,0.5,0.1,0.8c0,0.2,0,0.3,0.1,0.5c0.1,0.3,0.3,0.3,0.5,0
			s0.3-0.4,0.4-0.6c0.4-0.5,0.5-1.2,0.2-1.7c-0.2-0.3-0.4-0.7-0.6-1c2.9-2.5,4.6-6.2,4.5-10c0-2.5-1-4.8-2.8-6.6
			C28.7,2.3,26.3,0,19.4,0h-1c-1.1,0-3.5,0.1-4.8,0.1h-1h-0.7C10.8,0.1,8.4,0,6.5,0C6.2,0,5.5,0,5.5,0.6c0,0.3,0.3,0.6,0.6,0.6
			c0,0,0,0,0,0c0.6,0,1.2,0,1.8,0.1C9.6,1.7,10,2.5,10,4.2c0.1,1.4,0.1,2.6,0.1,7.5c-0.1,0.3-0.3,0.7-0.4,1c-0.2,0.4-0.5,0.8-0.9,1
			c-0.5,0.3-1,0.6-1.5,1c-0.8,0.8-1.4,1.9-1.7,3.1c-0.2,0.8-0.5,1.5-0.9,2.1c-0.4,0.6-1,1-1.7,1.1c-0.4,0.1-0.7,0.3-1,0.5
			c-0.2,0.1-0.2,0.3-0.2,0.4c0,0,0,0,0,0c0.1,0.2,0.2,0.3,0.4,0.2l0.7-0.1c-0.3,0.4-0.8,0.7-1.3,0.9c-0.4,0.1-0.9,0.2-1.3,0.4
			c-0.1,0-0.2,0.1-0.3,0.3c0,0.1,0.1,0.3,0.2,0.4c0.6,0.4,1.3,0.5,2,0.3C2.6,24,3.1,24,3.6,24.1c0.2,0,0.4,0,0.7,0
			c0.5-0.1,0.9-0.4,1.3-0.8c0.6-0.5,1.1-1,1.5-1.6c0.6-0.9,1.2-1.8,1.9-2.7c0.3-0.3,0.6-0.7,0.9-1h0.1c-0.2,0.4-0.4,0.7-0.6,1.1
			c-0.2,0.5-0.4,1.1-0.6,1.7c-0.1,0.7-0.1,1.3,0.1,2c0.2,0.7,0.5,1.4,1,2c0.1,0.1,0.2,0.3,0.3,0.4v0.3c0,2.8,0,5.4,0,7.6l-0.8,0.9
			C8.8,34.7,8,35.4,7.2,36c-0.2,0.1-0.4,0.2-0.6,0.4c-0.3,0.4-0.3,0.8,0,1.2c0.4,0.8,0.9,1.6,1.5,2.4l0,0c-0.4,0.1-0.8,0.1-1.2,0.1
			c-0.5,0-0.7,0.3-0.7,0.5c0,0.6,0.8,0.6,1.1,0.6c1.2,0,3.5-0.1,4.5-0.1h0.4h0.3h0.6c1,0,2.9,0.1,4.8,0.1h0.2h1.7
			c1.9,0,4.3,0.1,7.3,0.1s3.2-0.2,3.6-1.6c0.4-1.8,0.7-3.6,0.8-5.5C31.5,33.9,31.5,33.3,31,33.3z M19.3,35.2
			c0.2,0.4,0.4,0.9,0.6,1.3c0.4,0.7,0.5,1.5,0.3,2.3c-2.5-0.1-3.3-0.5-3.9-1.1s-0.8-2-1-4.4c0.3-0.3,0.5-0.7,0.5-1.1
			c0.1-0.7,0.2-1.3,0.2-2c0-0.5,0.1-1.1,0.2-1.6c0-0.2,0.2-0.2,0.3,0c0.3,0.4,0.6,0.8,0.8,1.3c0.2,0.4,0.3,0.8,0.4,1.1l0.6,1.8
			l0.4,1C19,34.3,19.1,34.8,19.3,35.2L19.3,35.2z M22.3,15.6c-0.9-0.5-1.5-1.5-1.5-2.5c0-0.8-0.1-1.6-0.3-2.3
			c-0.1-0.2-0.1-0.4,0-0.6C20.6,9.7,20.9,9.3,21,9c0.2-0.4,0.3-0.8,0.4-1.2c0.2-1-0.1-2-0.7-2.9c-0.3-0.5-0.8-0.8-1.4-0.8
			c-0.5,0-1,0.1-1.5,0.3C17.4,4.6,17,5,16.7,5.5c-0.2,0.3-0.4,0.7-0.5,1c-0.2,0.4-0.6,0.7-1,0.9c0-1.6,0-2.3,0.1-3.2
			c0-0.7,0.1-1.4,0.4-2C16.3,2.1,16.9,2,17.6,2h0.2c2.6-0.2,5.2,0.8,7,2.6c2,2.2,3.1,5.2,3,8.2c0,1.8-0.6,3.6-1.6,5
			c-0.5-0.5-1.1-0.9-1.8-1.3C23.7,16.3,23,15.9,22.3,15.6L22.3,15.6z M23,20.4c-1.4,0.7-2.9,1.1-4.5,1h-0.4C18,21.2,18,20.9,18,20.7
			c0.1-0.3,0.2-0.6,0.4-0.9c0.4-0.7,1.3-1.1,2-0.7c0,0,0.1,0,0.1,0.1c0.6,0.3,1.3,0.7,2,1L23,20.4z M30.3,39.7
			C30,40.8,29.9,41,27.1,41c-3,0-5.4,0-7.3-0.1h-1.7H18c-1.9,0-3.8-0.1-4.8-0.1h-0.6h-0.3h-0.4c-1,0-3.3,0.1-4.5,0.1
			c-0.7,0-0.7-0.1-0.7-0.2s0-0.1,0.2-0.1c0.5,0,1-0.1,1.5-0.2c0.1,0,0.1,0,0.2,0c1.2-0.3,1.5-1.6,1.7-3.2c0.1-1.1,0.2-2.7,0.2-4.7
			s0-4.1,0-6.6V10.7c0-4,0-5.2-0.1-6.5C10.4,2.3,10,1.3,8,0.9C7.4,0.8,6.7,0.8,6.1,0.8c-0.1,0-0.2,0-0.2-0.1s0-0.2,0.7-0.2
			c1.8,0,4.2,0.1,5.4,0.1c0.4,0,0.7,0,0.7,0h1c1.4-0.1,3.7-0.1,4.8-0.1h1c6.7,0,9,2.2,9.9,3C31,5.1,32,7.4,32,9.7
			c0.1,3.7-1.5,7.3-4.3,9.7c-0.8,0.7-1.7,1.2-2.7,1.7c-1.9,0.9-4,1.3-6.1,1.3h-0.1c-0.3,0-0.7,0-1,0h-0.1c-0.1,0-0.4,0-0.4-0.2
			s0-0.3,1.1-0.3h0.2c1.8,0,3.5-0.4,5-1.3c1.1-0.6,2-1.5,2.8-2.5c1.1-1.5,1.8-3.4,1.8-5.3c0.1-3.1-1-6.2-3.1-8.5
			c-1.9-1.9-4.6-2.9-7.3-2.8h-0.2c-0.7,0-1.4,0.1-2.1,0.2h-0.1v0.1c-0.4,0.7-0.6,1.5-0.6,2.3c-0.1,0.9-0.1,1.7-0.1,3.4s0,4.1,0,8.3
			v9.6c0,3.7,0,6.3,0.2,8.2c0.2,2.6,0.5,3.8,1.1,4.3c0.7,0.8,1.9,1.1,4.1,1.3c0.7,0,1.6,0.1,2.5,0.1c1.3,0,2.6,0,3.9-0.2
			c1.1-0.1,2.1-0.7,2.9-1.5c0.7-1,1.2-2.1,1.5-3.3c0.1-0.5,0.2-0.5,0.3-0.5l0,0c0,0,0.1,0.1,0.1,0.6C31,36.2,30.7,37.9,30.3,39.7z"
			/>
		<path class="st1" d="M31,33.8c0,0,0.1,0.1,0.1,0.6c-0.1,1.8-0.4,3.6-0.8,5.3C30,40.8,29.9,41,27.1,41c-3,0-5.4,0-7.3-0.1h-1.7H18
			c-1.9,0-3.8-0.1-4.8-0.1h-0.6h-0.3h-0.4c-1,0-3.3,0.1-4.5,0.1c-0.7,0-0.7-0.1-0.7-0.2s0-0.1,0.2-0.1c0.5,0,1-0.1,1.5-0.2
			c0.1,0,0.1,0,0.2,0c1.2-0.3,1.5-1.6,1.7-3.2c0.1-1.1,0.2-2.7,0.2-4.7s0-4.1,0-6.6V10.7c0-4,0-5.2-0.1-6.5C10.4,2.3,10,1.3,8,0.9
			C7.4,0.8,6.7,0.8,6.1,0.8c-0.1,0-0.2,0-0.2-0.1s0-0.2,0.7-0.2c1.8,0,4.2,0.1,5.4,0.1c0.4,0,0.7,0,0.7,0h1c1.4-0.1,3.7-0.1,4.8-0.1
			h1c6.7,0,9,2.2,9.9,3C31,5.1,32,7.4,32,9.7c0.1,3.7-1.5,7.3-4.3,9.7c-0.8,0.7-1.7,1.2-2.7,1.7c-1.9,0.9-4,1.3-6.1,1.3h-0.1
			c-0.3,0-0.7,0-1,0h-0.1c-0.1,0-0.4,0-0.4-0.2s0-0.3,1.1-0.3h0.2c1.8,0,3.5-0.4,5-1.3c1.1-0.6,2-1.5,2.8-2.5
			c1.1-1.5,1.8-3.4,1.8-5.3c0.1-3.1-1-6.2-3.1-8.5c-1.9-1.9-4.6-2.9-7.3-2.8h-0.2c-0.7,0-1.4,0.1-2.1,0.2h-0.1v0.1
			c-0.4,0.7-0.6,1.5-0.6,2.3c-0.1,0.9-0.1,1.7-0.1,3.4s0,4.1,0,8.3v9.6c0,3.7,0,6.3,0.2,8.2c0.2,2.6,0.5,3.8,1.1,4.3
			c0.7,0.8,1.9,1.1,4.1,1.3c0.7,0,1.6,0.1,2.5,0.1c1.3,0,2.6,0,3.9-0.2c1.1-0.1,2.1-0.7,2.9-1.5c0.7-1,1.2-2.1,1.5-3.3
			C30.9,33.8,31,33.8,31,33.8L31,33.8z"/>
		<path class="st1" d="M48.4,18.2v2.5H38.1V4.5h3v13.7H48.4z"/>
		<path class="st1" d="M54.2,8.2c0.8,0,1.6,0.1,2.4,0.4c0.6,0.2,1.1,0.5,1.5,1c0.4,0.4,0.7,0.9,0.8,1.5c0.2,0.7,0.3,1.3,0.3,2v7.4
			c-0.4,0.1-1.1,0.2-2,0.3c-1,0.1-2,0.2-3,0.2c-0.7,0-1.3-0.1-2-0.2c-0.6-0.1-1.1-0.4-1.6-0.7c-0.4-0.3-0.8-0.7-1-1.2
			c-0.3-0.6-0.4-1.2-0.3-1.9c0-0.6,0.1-1.2,0.4-1.8c0.3-0.5,0.6-0.9,1.1-1.2c0.5-0.3,1-0.5,1.6-0.6c0.6-0.1,1.3-0.2,1.9-0.2
			c0.3,0,0.6,0,1,0.1c0.4,0,0.7,0.1,1.1,0.2V13c0-0.3,0-0.6-0.1-0.9c-0.1-0.3-0.2-0.6-0.4-0.8c-0.2-0.2-0.5-0.4-0.8-0.5
			c-0.4-0.1-0.8-0.2-1.2-0.2c-0.6,0-1.2,0-1.8,0.1c-0.5,0.1-0.9,0.2-1.3,0.3l-0.3-2.3c0.5-0.2,1-0.3,1.5-0.4
			C52.7,8.2,53.4,8.2,54.2,8.2z M54.4,18.7c0.7,0,1.3,0,2-0.1v-3.1c-0.2,0-0.4-0.1-0.7-0.1c-0.3,0-0.7-0.1-1-0.1c-0.3,0-0.7,0-1,0.1
			c-0.3,0-0.6,0.1-0.9,0.3c-0.2,0.1-0.5,0.3-0.6,0.5c-0.2,0.3-0.2,0.5-0.2,0.9c-0.1,0.5,0.2,1.1,0.6,1.4
			C53.2,18.6,53.8,18.8,54.4,18.7z"/>
		<path class="st1" d="M61.2,8.9c1.6-0.4,3.3-0.7,5-0.7c0.9,0,1.7,0.1,2.5,0.4c0.6,0.2,1.2,0.6,1.6,1.1c0.4,0.5,0.7,1.1,0.8,1.8
			c0.2,0.7,0.3,1.5,0.3,2.3v6.9h-2.8v-6.4c0-0.6,0-1.1-0.1-1.7c-0.1-0.4-0.2-0.8-0.5-1.1c-0.2-0.3-0.5-0.5-0.8-0.6
			c-0.4-0.1-0.8-0.2-1.2-0.2c-0.4,0-0.7,0-1.1,0.1L64,10.8v9.9h-2.8V8.9z"/>
		<path class="st1" d="M84.2,20.3c-0.7,0.2-1.4,0.4-2.1,0.5c-0.9,0.1-1.8,0.2-2.7,0.2c-0.9,0-1.8-0.1-2.6-0.4
			c-0.8-0.3-1.4-0.7-2-1.3c-0.6-0.6-1-1.3-1.2-2c-0.3-0.9-0.4-1.8-0.4-2.7c0-0.9,0.1-1.8,0.4-2.6c0.2-0.7,0.6-1.4,1.1-2
			c0.5-0.6,1-1,1.7-1.3c0.7-0.3,1.5-0.5,2.3-0.5c0.5,0,1.1,0.1,1.6,0.2c0.4,0.1,0.8,0.3,1.2,0.5V3l2.8-0.5V20.3z M76.1,14.6
			c-0.1,1.1,0.3,2.1,0.9,2.9c0.6,0.7,1.5,1.1,2.5,1.1c0.4,0,0.8,0,1.2-0.1c0.3,0,0.5-0.1,0.8-0.1v-7c-0.3-0.2-0.6-0.4-1-0.5
			c-0.4-0.2-0.9-0.2-1.3-0.2c-0.9-0.1-1.7,0.3-2.3,1C76.3,12.6,76,13.6,76.1,14.6z"/>
		<path class="st1" d="M97.7,14.6c0,0.9-0.1,1.8-0.4,2.6c-0.3,0.7-0.7,1.4-1.2,2c-0.5,0.6-1.2,1-1.9,1.3c-0.8,0.3-1.6,0.5-2.4,0.5
			c-0.8,0-1.6-0.2-2.4-0.5c-0.7-0.3-1.3-0.7-1.8-1.3c-0.5-0.6-0.9-1.3-1.2-2c-0.3-0.8-0.4-1.7-0.4-2.6c0-0.9,0.1-1.8,0.4-2.6
			c0.3-0.7,0.7-1.4,1.2-2c0.5-0.6,1.2-1,1.9-1.3c0.7-0.3,1.6-0.5,2.4-0.5c0.8,0,1.6,0.2,2.4,0.5c0.7,0.3,1.3,0.7,1.9,1.3
			c0.5,0.6,0.9,1.3,1.2,2C97.6,12.8,97.7,13.7,97.7,14.6z M94.8,14.6c0.1-1-0.2-2-0.8-2.9c-0.9-1.2-2.7-1.4-3.9-0.5
			c-0.2,0.1-0.3,0.3-0.5,0.5c-0.6,0.9-0.8,1.9-0.8,2.9c-0.1,1,0.2,2.1,0.8,2.9c0.9,1.2,2.7,1.4,3.9,0.5c0.2-0.1,0.4-0.3,0.5-0.5
			C94.6,16.6,94.9,15.6,94.8,14.6z"/>
		<path class="st1" d="M99.1,8.9c0.7-0.2,1.4-0.3,2.1-0.4c1-0.1,1.9-0.2,2.9-0.2c0.9,0,1.7,0.1,2.5,0.4c0.6,0.2,1.2,0.6,1.6,1.1
			c0.4,0.5,0.7,1.1,0.8,1.8c0.2,0.7,0.3,1.5,0.3,2.3v6.9h-2.8v-6.4c0-0.6,0-1.1-0.1-1.7c-0.1-0.4-0.2-0.8-0.4-1.1
			c-0.2-0.3-0.5-0.5-0.8-0.6c-0.4-0.1-0.8-0.2-1.2-0.2c-0.4,0-0.7,0-1.1,0.1l-0.9,0.1v9.9h-2.8V8.9z"/>
		<path class="st1" d="M121.1,4.3c1.9-0.1,3.8,0.3,5.4,1.3c1.3,0.9,2,2.4,1.9,4c0,0.8-0.1,1.7-0.5,2.4c-0.3,0.7-0.8,1.3-1.5,1.7
			c-0.7,0.5-1.5,0.8-2.3,0.9c-1,0.2-2.1,0.3-3.2,0.3h-1.5v5.7h-3v-16c0.8-0.2,1.5-0.3,2.3-0.3C119.7,4.3,120.4,4.3,121.1,4.3z
			 M121.4,6.9c-0.8,0-1.4,0-1.8,0.1v5.5h1.5c1.1,0.1,2.2-0.1,3.3-0.6c0.8-0.5,1.3-1.3,1.2-2.3c0-0.5-0.1-0.9-0.3-1.3
			c-0.2-0.4-0.5-0.6-0.8-0.8c-0.4-0.2-0.8-0.4-1.3-0.4C122.4,6.9,121.9,6.9,121.4,6.9z"/>
		<path class="st1" d="M128.9,14.6c0-1,0.1-1.9,0.5-2.8c0.3-0.7,0.7-1.4,1.3-2c0.5-0.5,1.1-0.9,1.8-1.2c0.7-0.3,1.4-0.4,2.1-0.4
			c1.5-0.1,2.9,0.5,3.9,1.6c1,1.3,1.5,3,1.4,4.7c0,0.2,0,0.3,0,0.5s0,0.4,0,0.5h-8.1c0,0.9,0.4,1.7,1,2.3c0.8,0.6,1.7,0.9,2.7,0.8
			c0.6,0,1.3-0.1,1.9-0.2c0.5-0.1,0.9-0.2,1.4-0.4l0.4,2.3c-0.2,0.1-0.4,0.2-0.6,0.2c-0.3,0.1-0.6,0.2-0.9,0.2
			c-0.4,0.1-0.8,0.1-1.1,0.2c-0.4,0-0.8,0.1-1.2,0.1c-1,0-1.9-0.1-2.8-0.5c-0.8-0.3-1.4-0.7-2-1.3c-0.5-0.6-0.9-1.3-1.1-2
			C129,16.4,128.9,15.5,128.9,14.6z M137.1,13.4c0-0.4-0.1-0.8-0.2-1.1c-0.1-0.3-0.3-0.6-0.5-0.9c-0.2-0.3-0.5-0.5-0.8-0.6
			c-0.3-0.2-0.7-0.2-1.1-0.2c-0.8,0-1.5,0.3-2,0.9c-0.2,0.3-0.4,0.6-0.5,0.9c-0.1,0.3-0.2,0.7-0.3,1.1L137.1,13.4z"/>
		<path class="st1" d="M141.7,5.2l2.8-0.5v3.7h4.4v2.4h-4.4v5c-0.1,0.7,0.1,1.5,0.5,2.1c0.4,0.5,1,0.7,1.6,0.6
			c0.5,0,0.9-0.1,1.4-0.2c0.4-0.1,0.7-0.2,0.9-0.3l0.5,2.3c-0.4,0.2-0.9,0.3-1.3,0.4c-0.6,0.2-1.2,0.2-1.9,0.2
			c-0.7,0-1.5-0.1-2.2-0.4c-0.5-0.2-1-0.5-1.4-1c-0.4-0.5-0.6-1-0.7-1.6c-0.1-0.7-0.2-1.4-0.2-2.2V5.2z"/>
		<path class="st1" d="M150.4,5.2l2.8-0.5v3.7h4.4v2.4h-4.4v5c-0.1,0.7,0.1,1.5,0.5,2.1c0.4,0.5,1,0.7,1.6,0.6
			c0.5,0,0.9-0.1,1.4-0.2c0.4-0.1,0.7-0.2,0.9-0.3l0.5,2.3c-0.4,0.2-0.8,0.3-1.3,0.4c-0.6,0.2-1.2,0.2-1.9,0.2
			c-0.7,0-1.5-0.1-2.2-0.4c-0.5-0.2-1-0.5-1.4-1c-0.4-0.5-0.6-1-0.7-1.6c-0.1-0.7-0.2-1.4-0.2-2.2V5.2z"/>
		<path class="st1" d="M162.7,4.9c0,0.5-0.2,0.9-0.5,1.3c-0.3,0.3-0.8,0.5-1.2,0.5c-0.5,0-0.9-0.2-1.2-0.5c-0.4-0.3-0.5-0.8-0.5-1.3
			c0-0.5,0.2-1,0.5-1.3c0.3-0.3,0.8-0.5,1.3-0.5c0.4,0,0.9,0.2,1.2,0.5C162.5,3.9,162.7,4.4,162.7,4.9z M162.4,20.7h-2.8V8.5h2.8
			V20.7z"/>
		<path class="st1" d="M165,5.2l2.8-0.5v3.7h4.4v2.4h-4.4v5c-0.1,0.7,0.1,1.5,0.5,2.1c0.4,0.5,1,0.7,1.6,0.6c0.5,0,0.9-0.1,1.4-0.2
			c0.4-0.1,0.7-0.2,0.9-0.3l0.5,2.3c-0.4,0.2-0.9,0.3-1.3,0.4c-0.6,0.2-1.2,0.2-1.9,0.2c-0.7,0-1.5-0.1-2.2-0.4
			c-0.5-0.2-1-0.5-1.4-1c-0.4-0.5-0.6-1-0.7-1.6c-0.1-0.7-0.2-1.4-0.2-2.2L165,5.2z"/>
		<g>
			<path class="st1" d="M41.3,29.8c-1,0-1.7,0.3-2.2,0.8c-0.4,0.6-0.7,1.3-0.7,2.3c0,0.5,0.1,0.9,0.2,1.3c0.1,0.4,0.3,0.7,0.5,1
				c0.2,0.3,0.5,0.5,0.8,0.6c0.3,0.2,0.7,0.2,1.2,0.2c0.2,0,0.4,0,0.6,0s0.3,0,0.4-0.1v-3.3h2.1v4.7c-0.3,0.1-0.7,0.2-1.2,0.3
				c-0.6,0.1-1.3,0.2-2.1,0.2c-0.7,0-1.4-0.1-1.9-0.3c-0.6-0.2-1.1-0.5-1.5-1s-0.7-0.9-1-1.6c-0.2-0.6-0.3-1.3-0.3-2.1
				c0-0.8,0.1-1.5,0.4-2.1c0.2-0.6,0.6-1.1,1-1.6c0.4-0.4,0.9-0.7,1.5-1c0.6-0.2,1.2-0.3,1.9-0.3c0.4,0,0.9,0,1.2,0.1
				s0.7,0.1,0.9,0.2c0.3,0.1,0.5,0.2,0.6,0.2c0.2,0.1,0.3,0.1,0.4,0.2l-0.6,1.7c-0.3-0.2-0.6-0.3-1-0.4
				C42.2,29.9,41.7,29.8,41.3,29.8z"/>
			<path class="st1" d="M50,32.3c-0.2,0-0.4-0.1-0.6-0.1c-0.2,0-0.5-0.1-0.8-0.1c-0.1,0-0.3,0-0.5,0c-0.2,0-0.3,0-0.4,0.1v5.5h-2
				v-6.8c0.4-0.1,0.8-0.2,1.3-0.4s1.1-0.2,1.7-0.2c0.1,0,0.2,0,0.4,0c0.2,0,0.3,0,0.5,0.1c0.2,0,0.3,0,0.5,0.1
				c0.2,0,0.3,0.1,0.4,0.1L50,32.3z"/>
			<path class="st1" d="M53.6,30.3c0.6,0,1.1,0.1,1.5,0.2c0.4,0.1,0.7,0.3,1,0.6c0.2,0.3,0.4,0.6,0.5,0.9c0.1,0.4,0.2,0.8,0.2,1.2
				v4.3c-0.3,0.1-0.7,0.1-1.2,0.2c-0.5,0.1-1.2,0.1-1.9,0.1c-0.5,0-0.9,0-1.3-0.1c-0.4-0.1-0.7-0.2-1-0.4s-0.5-0.4-0.6-0.7
				c-0.1-0.3-0.2-0.7-0.2-1.1c0-0.4,0.1-0.8,0.3-1.1s0.4-0.5,0.7-0.7s0.6-0.3,1-0.4c0.4-0.1,0.7-0.1,1.1-0.1c0.3,0,0.5,0,0.7,0
				c0.2,0,0.4,0.1,0.5,0.1v-0.2c0-0.3-0.1-0.6-0.3-0.8c-0.2-0.2-0.6-0.3-1.1-0.3c-0.3,0-0.7,0-1,0.1c-0.3,0-0.6,0.1-0.9,0.2
				l-0.3-1.6c0.1,0,0.3-0.1,0.4-0.1c0.2,0,0.4-0.1,0.6-0.1c0.2,0,0.4-0.1,0.7-0.1C53.1,30.3,53.3,30.3,53.6,30.3z M53.7,36.3
				c0.2,0,0.4,0,0.6,0c0.2,0,0.3,0,0.4,0v-1.6c-0.1,0-0.2,0-0.4-0.1c-0.2,0-0.3,0-0.5,0c-0.2,0-0.4,0-0.5,0s-0.3,0.1-0.4,0.1
				c-0.1,0.1-0.2,0.2-0.3,0.3c-0.1,0.1-0.1,0.2-0.1,0.4c0,0.3,0.1,0.5,0.3,0.7C53.1,36.2,53.4,36.3,53.7,36.3z"/>
			<path class="st1" d="M64.7,34.1c0,0.6-0.1,1.1-0.2,1.5c-0.1,0.5-0.3,0.9-0.6,1.2c-0.3,0.3-0.6,0.6-1,0.8
				c-0.4,0.2-0.8,0.3-1.4,0.3c-0.3,0-0.5,0-0.8-0.1s-0.5-0.1-0.7-0.2v2.7h-2v-9.5c0.2-0.1,0.4-0.1,0.6-0.2c0.2,0,0.5-0.1,0.7-0.1
				s0.5-0.1,0.8-0.1c0.3,0,0.5,0,0.8,0c0.6,0,1.1,0.1,1.6,0.3c0.5,0.2,0.9,0.4,1.2,0.8c0.3,0.3,0.6,0.7,0.7,1.2
				C64.6,33,64.7,33.5,64.7,34.1z M62.6,34.2c0-0.6-0.1-1.1-0.4-1.5s-0.7-0.6-1.3-0.6c-0.2,0-0.4,0-0.5,0c-0.2,0-0.3,0-0.4,0v3.7
				c0.1,0.1,0.3,0.2,0.5,0.2c0.2,0.1,0.4,0.1,0.6,0.1C62.2,36.1,62.6,35.5,62.6,34.2z"/>
			<path class="st1" d="M65.8,37.7V27.4l2-0.3v3.5c0.1,0,0.3-0.1,0.5-0.1c0.2,0,0.4-0.1,0.6-0.1c0.6,0,1.1,0.1,1.5,0.2
				c0.4,0.2,0.7,0.4,0.9,0.7c0.2,0.3,0.4,0.6,0.5,1c0.1,0.4,0.1,0.9,0.1,1.3v4.1h-2v-3.8c0-0.7-0.1-1.1-0.3-1.4s-0.5-0.4-0.9-0.4
				c-0.2,0-0.4,0-0.5,0c-0.2,0-0.3,0.1-0.4,0.1v5.5H65.8z"/>
			<path class="st1" d="M75.8,28.4c0,0.4-0.1,0.7-0.4,0.9c-0.2,0.2-0.5,0.3-0.9,0.3c-0.3,0-0.6-0.1-0.9-0.3
				c-0.2-0.2-0.4-0.5-0.4-0.9c0-0.4,0.1-0.7,0.4-0.9c0.2-0.2,0.5-0.3,0.9-0.3c0.3,0,0.6,0.1,0.9,0.3C75.7,27.7,75.8,28,75.8,28.4z
				 M75.6,37.7h-2v-7.2h2V37.7z"/>
			<path class="st1" d="M76.9,34.1c0-0.5,0.1-1,0.3-1.5s0.4-0.9,0.7-1.2c0.3-0.3,0.7-0.6,1.2-0.8c0.5-0.2,1-0.3,1.6-0.3
				c0.4,0,0.7,0,1.1,0.1c0.3,0.1,0.6,0.2,0.9,0.3l-0.4,1.6c-0.2-0.1-0.4-0.1-0.6-0.2c-0.2-0.1-0.5-0.1-0.8-0.1
				c-0.6,0-1.1,0.2-1.4,0.6C79.2,33,79,33.5,79,34.1c0,0.6,0.1,1.2,0.4,1.5c0.3,0.4,0.8,0.5,1.5,0.5c0.2,0,0.5,0,0.8-0.1
				c0.3,0,0.5-0.1,0.8-0.2l0.3,1.7c-0.2,0.1-0.5,0.2-0.9,0.3s-0.8,0.1-1.2,0.1c-0.7,0-1.2-0.1-1.7-0.3c-0.5-0.2-0.9-0.5-1.2-0.8
				c-0.3-0.3-0.5-0.7-0.7-1.2C77,35.1,76.9,34.6,76.9,34.1z"/>
			<path class="st1" d="M86.4,35.2c0-0.3,0.1-0.7,0.2-1c0.1-0.3,0.2-0.5,0.4-0.8c0.2-0.2,0.4-0.4,0.6-0.6c0.2-0.2,0.5-0.3,0.7-0.5
				c-0.2-0.3-0.4-0.6-0.6-0.9s-0.3-0.6-0.3-1c0-0.8,0.2-1.4,0.7-1.9c0.5-0.4,1.2-0.7,2-0.7c0.4,0,0.8,0.1,1.1,0.2s0.6,0.3,0.8,0.5
				c0.2,0.2,0.4,0.4,0.5,0.7c0.1,0.3,0.2,0.5,0.2,0.8c0,0.6-0.2,1.1-0.5,1.5c-0.3,0.4-0.7,0.8-1.2,1.1l1.5,1.5
				c0.1-0.2,0.2-0.4,0.2-0.7c0.1-0.3,0.1-0.5,0.1-0.7l1.7,0.2c0,0.2,0,0.4-0.1,0.6c0,0.2-0.1,0.4-0.2,0.6c-0.1,0.2-0.1,0.4-0.2,0.6
				c-0.1,0.2-0.2,0.4-0.3,0.6c0.3,0.3,0.6,0.7,0.9,1.1c0.3,0.4,0.5,0.8,0.7,1.2h-2.1c-0.1-0.1-0.2-0.3-0.3-0.4
				c-0.1-0.2-0.3-0.3-0.4-0.5c-0.4,0.3-0.8,0.5-1.3,0.7c-0.5,0.2-1,0.3-1.6,0.3c-0.6,0-1.2-0.1-1.6-0.2s-0.8-0.4-1-0.6
				c-0.3-0.3-0.4-0.5-0.6-0.8C86.4,35.8,86.4,35.5,86.4,35.2z M88.3,35c0,0.1,0,0.3,0.1,0.4c0.1,0.1,0.1,0.3,0.3,0.4
				c0.1,0.1,0.3,0.2,0.5,0.3c0.2,0.1,0.4,0.1,0.7,0.1c0.4,0,0.7-0.1,1-0.2c0.3-0.1,0.5-0.2,0.7-0.4l-2.2-2.2
				c-0.1,0.1-0.3,0.1-0.4,0.2c-0.1,0.1-0.2,0.2-0.3,0.3c-0.1,0.1-0.2,0.3-0.2,0.4C88.3,34.6,88.3,34.8,88.3,35z M91,30.2
				c0-0.2-0.1-0.4-0.2-0.6c-0.1-0.2-0.4-0.2-0.7-0.2c-0.3,0-0.5,0.1-0.7,0.3c-0.2,0.2-0.2,0.4-0.2,0.7c0,0.2,0.1,0.5,0.2,0.7
				c0.1,0.2,0.3,0.4,0.5,0.6c0.3-0.2,0.5-0.4,0.8-0.6C90.8,30.9,91,30.6,91,30.2z"/>
			<path class="st1" d="M105.8,29.2c0.1,0.4,0.2,0.8,0.4,1.3c0.1,0.5,0.3,1,0.4,1.5s0.3,1,0.5,1.5s0.3,1,0.5,1.4
				c0.1-0.5,0.2-1,0.4-1.5s0.2-1.1,0.4-1.7c0.1-0.6,0.2-1.2,0.3-1.7c0.1-0.6,0.2-1.1,0.3-1.7h2.2c-0.3,1.6-0.7,3.2-1.1,4.8
				c-0.4,1.6-0.9,3.2-1.4,4.7h-2c-0.3-0.9-0.6-1.8-0.9-2.8c-0.3-1-0.6-1.9-0.9-2.9c-0.3,1-0.6,1.9-0.9,2.9s-0.6,1.9-0.9,2.8h-2
				c-0.5-1.5-0.9-3-1.4-4.7c-0.4-1.6-0.8-3.3-1.1-4.8h2.3c0.1,0.5,0.2,1.1,0.3,1.7s0.2,1.2,0.3,1.7c0.1,0.6,0.2,1.2,0.4,1.7
				s0.3,1.1,0.4,1.5c0.2-0.4,0.3-0.9,0.5-1.4c0.2-0.5,0.3-1,0.5-1.5c0.1-0.5,0.3-1,0.4-1.5c0.1-0.5,0.2-0.9,0.3-1.2H105.8z"/>
			<path class="st1" d="M110.9,34.2c0-0.6,0.1-1.2,0.3-1.7c0.2-0.5,0.5-0.9,0.8-1.2s0.7-0.6,1.1-0.7c0.4-0.2,0.8-0.2,1.3-0.2
				c1,0,1.8,0.3,2.4,0.9c0.6,0.6,0.9,1.5,0.9,2.8c0,0.1,0,0.2,0,0.4c0,0.1,0,0.3,0,0.4H113c0,0.4,0.2,0.8,0.6,1s0.8,0.4,1.4,0.4
				c0.4,0,0.7,0,1.1-0.1s0.7-0.2,0.9-0.3l0.3,1.7c-0.1,0.1-0.3,0.1-0.4,0.2c-0.2,0.1-0.4,0.1-0.6,0.1c-0.2,0-0.5,0.1-0.7,0.1
				c-0.3,0-0.5,0-0.8,0c-0.6,0-1.2-0.1-1.7-0.3c-0.5-0.2-0.9-0.5-1.2-0.8c-0.3-0.3-0.5-0.7-0.7-1.2C111,35.2,110.9,34.7,110.9,34.2z
				 M115.7,33.4c0-0.2,0-0.3-0.1-0.5c0-0.2-0.1-0.3-0.2-0.4c-0.1-0.1-0.2-0.2-0.4-0.3s-0.4-0.1-0.6-0.1c-0.2,0-0.4,0-0.6,0.1
				c-0.2,0.1-0.3,0.2-0.4,0.3c-0.1,0.1-0.2,0.3-0.3,0.4c-0.1,0.2-0.1,0.3-0.1,0.5H115.7z"/>
			<path class="st1" d="M125.5,34.1c0,0.6-0.1,1.1-0.3,1.6c-0.2,0.5-0.4,0.9-0.7,1.2s-0.7,0.6-1.2,0.8c-0.5,0.2-1,0.3-1.6,0.3
				c-0.2,0-0.5,0-0.8,0c-0.3,0-0.5-0.1-0.8-0.1c-0.3,0-0.5-0.1-0.7-0.1c-0.2-0.1-0.4-0.1-0.6-0.2V27.4l2-0.3v3.6
				c0.2-0.1,0.5-0.2,0.7-0.2c0.2-0.1,0.5-0.1,0.8-0.1c0.5,0,1,0.1,1.4,0.3c0.4,0.2,0.7,0.4,1,0.8c0.3,0.3,0.5,0.7,0.6,1.2
				C125.4,33,125.5,33.5,125.5,34.1z M123.4,34c0-1.3-0.5-2-1.5-2c-0.2,0-0.4,0-0.6,0.1c-0.2,0.1-0.4,0.1-0.5,0.2v3.7
				c0.1,0,0.2,0,0.4,0s0.3,0,0.5,0c0.6,0,1-0.2,1.3-0.6C123.2,35.2,123.4,34.7,123.4,34z"/>
			<path class="st1" d="M138.2,32.9c0,0.8-0.1,1.5-0.4,2.2c-0.3,0.6-0.6,1.1-1.1,1.5c-0.5,0.4-1,0.7-1.7,0.9s-1.4,0.3-2.3,0.3
				c-0.4,0-0.8,0-1.3,0c-0.5,0-1-0.1-1.5-0.2v-9.3c0.5-0.1,1-0.2,1.5-0.2c0.5,0,1,0,1.4,0c0.8,0,1.6,0.1,2.2,0.3
				c0.7,0.2,1.2,0.5,1.7,0.9c0.5,0.4,0.8,0.9,1.1,1.5C138.1,31.4,138.2,32.1,138.2,32.9z M132.1,36c0.1,0,0.2,0,0.3,0s0.3,0,0.5,0
				c1.1,0,1.9-0.3,2.4-0.8s0.8-1.3,0.8-2.2c0-1-0.2-1.8-0.7-2.3c-0.5-0.5-1.3-0.8-2.3-0.8c-0.1,0-0.3,0-0.5,0s-0.3,0-0.4,0V36z"/>
			<path class="st1" d="M139.3,34.2c0-0.6,0.1-1.2,0.3-1.7c0.2-0.5,0.5-0.9,0.8-1.2s0.7-0.6,1.1-0.7c0.4-0.2,0.8-0.2,1.3-0.2
				c1,0,1.8,0.3,2.4,0.9c0.6,0.6,0.9,1.5,0.9,2.8c0,0.1,0,0.2,0,0.4c0,0.1,0,0.3,0,0.4h-4.6c0,0.4,0.2,0.8,0.6,1s0.8,0.4,1.4,0.4
				c0.4,0,0.7,0,1.1-0.1s0.7-0.2,0.9-0.3l0.3,1.7c-0.1,0.1-0.3,0.1-0.4,0.2c-0.2,0.1-0.4,0.1-0.6,0.1c-0.2,0-0.5,0.1-0.7,0.1
				c-0.3,0-0.5,0-0.8,0c-0.6,0-1.2-0.1-1.7-0.3c-0.5-0.2-0.9-0.5-1.2-0.8c-0.3-0.3-0.5-0.7-0.7-1.2
				C139.4,35.2,139.3,34.7,139.3,34.2z M144.1,33.4c0-0.2,0-0.3-0.1-0.5c0-0.2-0.1-0.3-0.2-0.4c-0.1-0.1-0.2-0.2-0.4-0.3
				S143,32,142.8,32c-0.2,0-0.4,0-0.6,0.1c-0.2,0.1-0.3,0.2-0.4,0.3c-0.1,0.1-0.2,0.3-0.3,0.4c-0.1,0.2-0.1,0.3-0.1,0.5H144.1z"/>
			<path class="st1" d="M149.4,36.2c0.4,0,0.6,0,0.8-0.1c0.2-0.1,0.2-0.2,0.2-0.4c0-0.2-0.1-0.3-0.3-0.4c-0.2-0.1-0.5-0.3-0.9-0.4
				c-0.3-0.1-0.6-0.2-0.9-0.4c-0.3-0.1-0.5-0.3-0.7-0.5c-0.2-0.2-0.3-0.4-0.4-0.6c-0.1-0.2-0.2-0.5-0.2-0.9c0-0.7,0.3-1.2,0.8-1.6
				c0.5-0.4,1.2-0.6,2.1-0.6c0.4,0,0.9,0,1.3,0.1c0.4,0.1,0.7,0.2,1,0.3l-0.4,1.6c-0.2-0.1-0.5-0.2-0.8-0.2
				c-0.3-0.1-0.6-0.1-0.9-0.1c-0.6,0-1,0.2-1,0.5c0,0.1,0,0.2,0,0.2c0,0.1,0.1,0.1,0.2,0.2c0.1,0.1,0.2,0.1,0.3,0.2
				c0.1,0.1,0.3,0.1,0.5,0.2c0.4,0.2,0.8,0.3,1.1,0.5c0.3,0.2,0.5,0.3,0.7,0.5s0.3,0.4,0.4,0.6c0.1,0.2,0.1,0.5,0.1,0.8
				c0,0.7-0.3,1.3-0.8,1.6s-1.3,0.5-2.3,0.5c-0.6,0-1.2-0.1-1.6-0.2c-0.4-0.1-0.7-0.2-0.9-0.3l0.3-1.7c0.3,0.1,0.7,0.2,1.1,0.3
				C148.7,36.2,149.1,36.2,149.4,36.2z"/>
			<path class="st1" d="M156,28.4c0,0.4-0.1,0.7-0.4,0.9s-0.5,0.3-0.9,0.3s-0.6-0.1-0.9-0.3s-0.4-0.5-0.4-0.9c0-0.4,0.1-0.7,0.4-0.9
				s0.5-0.3,0.9-0.3s0.6,0.1,0.9,0.3S156,28,156,28.4z M155.8,37.7h-2v-7.2h2V37.7z"/>
			<path class="st1" d="M163.7,36.8c0,1.2-0.3,2.1-0.9,2.6c-0.6,0.6-1.5,0.9-2.8,0.9c-0.4,0-0.9,0-1.3-0.1c-0.4-0.1-0.8-0.2-1.2-0.3
				l0.4-1.7c0.3,0.1,0.7,0.2,1,0.3c0.4,0.1,0.8,0.1,1.2,0.1c0.6,0,1-0.1,1.2-0.4c0.2-0.3,0.4-0.6,0.4-1v-0.3
				c-0.2,0.1-0.4,0.2-0.7,0.2c-0.2,0.1-0.5,0.1-0.8,0.1c-1,0-1.8-0.3-2.3-0.9s-0.8-1.4-0.8-2.5c0-0.5,0.1-1,0.2-1.4
				c0.2-0.4,0.4-0.8,0.7-1.1s0.7-0.6,1.2-0.7c0.5-0.2,1-0.3,1.5-0.3c0.2,0,0.5,0,0.8,0c0.3,0,0.5,0.1,0.8,0.1s0.5,0.1,0.7,0.1
				c0.2,0.1,0.4,0.1,0.6,0.2V36.8z M159.2,33.9c0,1.1,0.5,1.7,1.4,1.7c0.2,0,0.4,0,0.6-0.1c0.2-0.1,0.3-0.1,0.5-0.2V32
				c-0.1,0-0.2,0-0.4,0c-0.1,0-0.3,0-0.5,0c-0.5,0-0.9,0.2-1.2,0.5C159.3,32.9,159.2,33.3,159.2,33.9z"/>
			<path class="st1" d="M165,30.7c0.3-0.1,0.8-0.2,1.3-0.3s1.1-0.1,1.7-0.1c0.6,0,1.1,0.1,1.5,0.2c0.4,0.2,0.7,0.4,1,0.7
				c0.2,0.3,0.4,0.6,0.5,1c0.1,0.4,0.2,0.9,0.2,1.3v4.1h-2v-3.8c0-0.7-0.1-1.1-0.3-1.4c-0.2-0.3-0.5-0.4-1-0.4c-0.1,0-0.3,0-0.5,0
				c-0.2,0-0.3,0-0.4,0v5.6h-2V30.7z"/>
		</g>
	</g>
</g>
</svg>
