<svg xmlns="http://www.w3.org/2000/svg" viewBox="0 0 172.65 41.44"><defs><style>.cls-1{fill:#278b5a;}.cls-2{fill:#fff;}</style></defs><title>siteid</title><g id="Layer_2" data-name="Layer 2"><g id="Layer_5" data-name="Layer 5"><path class="cls-1" d="M31,33.33c-.59,0-.67.63-.7.88A7.34,7.34,0,0,1,29,37.36,4.42,4.42,0,0,1,26,38.74a2,2,0,0,0-.36-.18c-.44-.17-.89-.3-1.32-.51A2.4,2.4,0,0,1,23,36.27a9.43,9.43,0,0,1-.16-1.5,19.73,19.73,0,0,0-.37-3c-.12-.76-.22-1.5-.31-2.26a3.53,3.53,0,0,1,0-.65,4.48,4.48,0,0,0-.41-1.74,14.31,14.31,0,0,0-.8-1.56A17.35,17.35,0,0,0,20.08,24c-.28-.41-.58-.82-.88-1.22a14.74,14.74,0,0,0,6.19-1.38,7.67,7.67,0,0,0,.92.79.51.51,0,0,0,.46,0,.31.31,0,0,0-.06-.5c-.06,0-.07-.13-.12-.21l.21-.08c.33-.07.45,0,.55.29a7.61,7.61,0,0,1,.09.82,1.63,1.63,0,0,0,.06.5c.12.25.3.26.47,0s.29-.42.42-.64a1.7,1.7,0,0,0,.21-1.72,7.7,7.7,0,0,0-.62-1,12.68,12.68,0,0,0,4.46-10,9.69,9.69,0,0,0-2.77-6.59C28.75,2.28,26.31,0,19.47,0h-1C17.34,0,15,.08,13.67.13l-1,0-.73,0C10.79.09,8.38,0,6.55,0,6.23,0,5.48,0,5.48.64a.58.58,0,0,0,.64.55,10.24,10.24,0,0,1,1.8.15C9.64,1.7,10,2.52,10.07,4.22c.09,1.39.1,2.64.1,7.47-.13.33-.27.66-.43,1a2.16,2.16,0,0,1-.94,1,5.39,5.39,0,0,0-1.46,1,6.18,6.18,0,0,0-1.7,3.06,5.79,5.79,0,0,1-.9,2.12A2.65,2.65,0,0,1,3,21a3.83,3.83,0,0,0-1,.45.34.34,0,0,0-.17.45.38.38,0,0,0,.43.24l.66-.06a2.22,2.22,0,0,1-1.32.86c-.45.1-.88.23-1.31.37a.48.48,0,0,0-.27.25.5.5,0,0,0,.16.36,2.45,2.45,0,0,0,2,.28,2.37,2.37,0,0,1,1.39-.15,1.43,1.43,0,0,0,.65,0,2.77,2.77,0,0,0,1.29-.75A9.58,9.58,0,0,0,7.06,21.7C7.7,20.82,8.3,19.91,8.94,19a12.9,12.9,0,0,1,.93-1l.05,0c-.19.37-.43.72-.58,1.1a9.17,9.17,0,0,0-.55,1.68,4.44,4.44,0,0,0,.08,2,4.75,4.75,0,0,0,1,2,2.79,2.79,0,0,1,.31.39v.25c0,2.82,0,5.43,0,7.58l-.76.9a8.18,8.18,0,0,1-2.21,2.06,2.06,2.06,0,0,0-.55.42,1,1,0,0,0,0,1.19c.45.82.95,1.6,1.46,2.39,0,0,0,0,0,0a6.46,6.46,0,0,1-1.19.14c-.47,0-.65.29-.65.54,0,.64.77.64,1.09.64,1.24,0,3.53-.09,4.51-.13l.41,0h.31l.6,0c1,0,2.88.11,4.8.14h.17l1.66,0c1.93,0,4.32.12,7.31.12s3.18-.23,3.61-1.62a34.63,34.63,0,0,0,.81-5.47C31.56,33.9,31.56,33.33,31,33.33Zm-11.68,1.9a8.37,8.37,0,0,0,.59,1.29,2.73,2.73,0,0,1,.27,2.32c-2.45-.13-3.34-.52-3.94-1.13s-.81-2-1-4.4a2.35,2.35,0,0,0,.53-1.1,17.21,17.21,0,0,0,.19-2c.05-.53.09-1.06.17-1.59,0-.21.21-.24.34-.05a10.85,10.85,0,0,1,.84,1.28A8.75,8.75,0,0,1,17.75,31l.63,1.8.38,1C19,34.3,19.14,34.77,19.35,35.23Zm3-19.67a2.9,2.9,0,0,1-1.5-2.51,9.54,9.54,0,0,0-.32-2.32,1,1,0,0,1,0-.65c.14-.39.37-.74.53-1.12a7,7,0,0,0,.39-1.17,3.8,3.8,0,0,0-.66-2.88A1.71,1.71,0,0,0,19.4,4.1a3.08,3.08,0,0,0-1.49.31A3,3,0,0,0,16.7,5.47c-.21.31-.36.66-.55,1a2.42,2.42,0,0,1-1,.94c0-1.55,0-2.33.1-3.17a4.4,4.4,0,0,1,.43-2,8.22,8.22,0,0,1,1.89-.19h.24a9,9,0,0,1,7,2.64,11.31,11.31,0,0,1,3,8.17,8.26,8.26,0,0,1-1.64,5,8.1,8.1,0,0,0-1.77-1.25C23.7,16.25,23,15.94,22.38,15.56Zm.74,4.83a9.78,9.78,0,0,1-4.46,1.05h-.44a1.14,1.14,0,0,1-.14-.77,3.2,3.2,0,0,1,.43-.87,1.5,1.5,0,0,1,2.13-.62c.65.33,1.28.69,1.95,1ZM30.34,39.7c-.34,1.1-.4,1.3-3.2,1.3-3,0-5.38,0-7.29-.11l-1.66,0H18c-1.92,0-3.78-.09-4.78-.13l-.62,0h-.32l-.41,0c-1,0-3.27.13-4.5.13-.65,0-.65-.13-.65-.21s0-.11.21-.11a7.28,7.28,0,0,0,1.48-.19.84.84,0,0,0,.19,0c1.24-.25,1.52-1.58,1.74-3.16.13-1.12.2-2.71.24-4.66s0-4.11,0-6.6V10.7c0-4,0-5.21-.11-6.5C10.39,2.35,10,1.34,8,.92A10.54,10.54,0,0,0,6.12.75c-.06,0-.22,0-.22-.11s0-.21.65-.21c1.82,0,4.22.09,5.37.14.4,0,.67,0,.74,0l1,0C15.05.51,17.35.43,18.5.43h1c6.67,0,9,2.19,9.9,3A9.18,9.18,0,0,1,32,9.72a12.31,12.31,0,0,1-4.28,9.69A12.11,12.11,0,0,1,25,21.1a14.46,14.46,0,0,1-6.08,1.27h-.06a8.2,8.2,0,0,1-1-.05h-.06c-.15,0-.37,0-.37-.17s0-.26,1.08-.26h.16a10,10,0,0,0,5-1.3,9.09,9.09,0,0,0,2.8-2.46,8.66,8.66,0,0,0,1.75-5.26,11.76,11.76,0,0,0-3.09-8.48,9.43,9.43,0,0,0-7.31-2.76h-.24a8.51,8.51,0,0,0-2.09.22l-.08,0,0,.06a4.6,4.6,0,0,0-.55,2.27c-.05.88-.08,1.7-.09,3.39s0,4.13,0,8.29V25.5c0,3.68,0,6.3.18,8.18.17,2.6.51,3.78,1.07,4.34.74.75,1.85,1.12,4.09,1.25.72,0,1.56.06,2.54.06a21.86,21.86,0,0,0,3.85-.22,4.61,4.61,0,0,0,2.86-1.49,7.75,7.75,0,0,0,1.45-3.35c.06-.5.18-.5.27-.5h0s.07.13.07.58A35,35,0,0,1,30.34,39.7Z"/><path class="cls-2" d="M31.07,33.77s.07.13.07.58a35,35,0,0,1-.8,5.35c-.34,1.1-.4,1.3-3.2,1.3-3,0-5.38,0-7.29-.11l-1.66,0H18c-1.92,0-3.78-.09-4.78-.13l-.62,0h-.32l-.41,0c-1,0-3.27.13-4.5.13-.65,0-.65-.13-.65-.21s0-.11.21-.11a7.28,7.28,0,0,0,1.48-.19.84.84,0,0,0,.19,0c1.24-.25,1.52-1.58,1.74-3.16.13-1.12.2-2.71.24-4.66s0-4.11,0-6.6V10.7c0-4,0-5.21-.11-6.5C10.39,2.35,10,1.34,8,.92A10.54,10.54,0,0,0,6.12.75c-.06,0-.22,0-.22-.11s0-.21.65-.21c1.82,0,4.22.09,5.37.14.4,0,.67,0,.74,0l1,0C15.05.51,17.35.43,18.5.43h1c6.67,0,9,2.19,9.9,3A9.18,9.18,0,0,1,32,9.72a12.31,12.31,0,0,1-4.28,9.69A12.11,12.11,0,0,1,25,21.1a14.46,14.46,0,0,1-6.08,1.27h-.06a8.2,8.2,0,0,1-1-.05h-.06c-.15,0-.37,0-.37-.17s0-.26,1.08-.26h.16a10,10,0,0,0,5-1.3,9.09,9.09,0,0,0,2.8-2.46,8.66,8.66,0,0,0,1.75-5.26,11.76,11.76,0,0,0-3.09-8.48,9.43,9.43,0,0,0-7.31-2.76h-.24a8.51,8.51,0,0,0-2.09.22l-.08,0,0,.06a4.6,4.6,0,0,0-.55,2.27c-.05.88-.08,1.7-.09,3.39s0,4.13,0,8.29V25.5c0,3.68,0,6.3.18,8.18.17,2.6.51,3.78,1.07,4.34.74.75,1.85,1.12,4.09,1.25.72,0,1.56.06,2.54.06a21.86,21.86,0,0,0,3.85-.22,4.61,4.61,0,0,0,2.86-1.49,7.75,7.75,0,0,0,1.45-3.35c.06-.5.18-.5.27-.5Z"/><path class="cls-2" d="M48.4,18.16v2.55H38.15V4.49h3V18.16Z"/><path class="cls-2" d="M54.21,8.16a7,7,0,0,1,2.36.35,3.83,3.83,0,0,1,1.53,1A3.65,3.65,0,0,1,58.92,11a7.66,7.66,0,0,1,.25,2v7.42c-.44.09-1.1.21-2,.34a20.56,20.56,0,0,1-3,.2,9,9,0,0,1-2-.21,4.27,4.27,0,0,1-1.56-.68,3.24,3.24,0,0,1-1-1.22A4.24,4.24,0,0,1,49.27,17a3.52,3.52,0,0,1,.41-1.78,3.3,3.3,0,0,1,1.11-1.18,4.87,4.87,0,0,1,1.62-.65,8.74,8.74,0,0,1,1.94-.2c.31,0,.63,0,1,.05a10.34,10.34,0,0,1,1.1.2V13a3.61,3.61,0,0,0-.12-.94,1.83,1.83,0,0,0-.41-.78,1.8,1.8,0,0,0-.77-.53,3.23,3.23,0,0,0-1.21-.19,11.15,11.15,0,0,0-1.8.14,8.85,8.85,0,0,0-1.33.33l-.35-2.29A10.77,10.77,0,0,1,52,8.35,12.81,12.81,0,0,1,54.21,8.16Zm.23,10.56a10.88,10.88,0,0,0,2-.14V15.44c-.16,0-.38-.09-.68-.14a7.28,7.28,0,0,0-1-.07,7.59,7.59,0,0,0-1,.07,3.27,3.27,0,0,0-.87.26,1.59,1.59,0,0,0-.62.53,1.49,1.49,0,0,0-.23.85,1.49,1.49,0,0,0,.63,1.39A3.23,3.23,0,0,0,54.44,18.72Z"/><path class="cls-2" d="M61.19,8.87a18.72,18.72,0,0,1,5-.66,6.76,6.76,0,0,1,2.51.41,3.91,3.91,0,0,1,1.6,1.15,4.26,4.26,0,0,1,.84,1.78,9.54,9.54,0,0,1,.25,2.28v6.88H68.59V14.27a9.85,9.85,0,0,0-.13-1.67A3,3,0,0,0,68,11.48a1.75,1.75,0,0,0-.8-.64,3.37,3.37,0,0,0-1.23-.2,11,11,0,0,0-1.12.07l-.87.12v9.88H61.19Z"/><path class="cls-2" d="M84.21,20.34a16.73,16.73,0,0,1-2.12.46,16.45,16.45,0,0,1-2.68.21,7,7,0,0,1-2.59-.44,5.38,5.38,0,0,1-2-1.28,5.55,5.55,0,0,1-1.24-2,7.65,7.65,0,0,1-.43-2.66A9,9,0,0,1,73.55,12a5.66,5.66,0,0,1,1.07-2,4.48,4.48,0,0,1,1.71-1.3,5.44,5.44,0,0,1,2.31-.46,5.28,5.28,0,0,1,1.57.21,7.29,7.29,0,0,1,1.17.47V3l2.83-.46Zm-8.12-5.79A4.47,4.47,0,0,0,77,17.49a3,3,0,0,0,2.46,1.07,9.58,9.58,0,0,0,1.16-.06,7,7,0,0,0,.78-.13v-7a4.57,4.57,0,0,0-1-.48,3.91,3.91,0,0,0-1.33-.23A2.55,2.55,0,0,0,76.8,11.7,5,5,0,0,0,76.09,14.55Z"/><path class="cls-2" d="M97.74,14.58a7.9,7.9,0,0,1-.43,2.64,5.87,5.87,0,0,1-1.19,2,5.36,5.36,0,0,1-1.86,1.31,6.08,6.08,0,0,1-2.4.47,6,6,0,0,1-2.39-.47,5.42,5.42,0,0,1-1.85-1.31,6.05,6.05,0,0,1-1.2-2A7.66,7.66,0,0,1,86,14.58a7.62,7.62,0,0,1,.43-2.64,6,6,0,0,1,1.21-2,5.43,5.43,0,0,1,1.87-1.3,6,6,0,0,1,2.36-.46,6.19,6.19,0,0,1,2.38.46,5.3,5.3,0,0,1,1.86,1.3,6.16,6.16,0,0,1,1.2,2A7.61,7.61,0,0,1,97.74,14.58Zm-2.91,0a4.79,4.79,0,0,0-.78-2.89,2.78,2.78,0,0,0-4.38,0,4.79,4.79,0,0,0-.78,2.89,4.86,4.86,0,0,0,.78,2.92,2.76,2.76,0,0,0,4.38,0A4.86,4.86,0,0,0,94.83,14.58Z"/><path class="cls-2" d="M99.15,8.87a17.38,17.38,0,0,1,2.13-.45,18.37,18.37,0,0,1,2.9-.21,6.7,6.7,0,0,1,2.5.41,3.88,3.88,0,0,1,1.61,1.15,4.26,4.26,0,0,1,.84,1.78,10.08,10.08,0,0,1,.25,2.28v6.88h-2.84V14.27a10,10,0,0,0-.12-1.67,2.88,2.88,0,0,0-.43-1.12,1.72,1.72,0,0,0-.79-.64,3.44,3.44,0,0,0-1.23-.2,11,11,0,0,0-1.12.07l-.87.12v9.88H99.15Z"/><path class="cls-2" d="M121.16,4.32a9.56,9.56,0,0,1,5.42,1.29,4.53,4.53,0,0,1,1.88,4,5.37,5.37,0,0,1-.5,2.44,4.27,4.27,0,0,1-1.46,1.67,6.71,6.71,0,0,1-2.34.94A14.34,14.34,0,0,1,121,15h-1.48v5.71h-3v-16a14.92,14.92,0,0,1,2.29-.31C119.69,4.35,120.46,4.32,121.16,4.32Zm.21,2.56c-.75,0-1.36,0-1.85.07v5.52H121a7.24,7.24,0,0,0,3.28-.6,2.31,2.31,0,0,0,1.15-2.26,2.7,2.7,0,0,0-.31-1.33,2.12,2.12,0,0,0-.84-.84A3.94,3.94,0,0,0,123,7,8.79,8.79,0,0,0,121.37,6.88Z"/><path class="cls-2" d="M128.94,14.65a7.66,7.66,0,0,1,.48-2.83,5.92,5.92,0,0,1,1.28-2,5.4,5.4,0,0,1,1.82-1.22,5.74,5.74,0,0,1,2.11-.41,5,5,0,0,1,3.94,1.57A6.77,6.77,0,0,1,140,14.41c0,.16,0,.34,0,.53s0,.37,0,.53h-8.07a3.22,3.22,0,0,0,1,2.28,4,4,0,0,0,2.68.81,9,9,0,0,0,1.88-.19,8.39,8.39,0,0,0,1.35-.4l.37,2.32a3.65,3.65,0,0,1-.64.24,7.51,7.51,0,0,1-.94.24,11.27,11.27,0,0,1-1.13.17,10.19,10.19,0,0,1-1.24.07,7.51,7.51,0,0,1-2.81-.48,5.13,5.13,0,0,1-2-1.33,5.54,5.54,0,0,1-1.14-2A8.25,8.25,0,0,1,128.94,14.65Zm8.22-1.27a3.68,3.68,0,0,0-.17-1.11,2.71,2.71,0,0,0-.47-.91,2.33,2.33,0,0,0-.78-.61,2.41,2.41,0,0,0-1.09-.22,2.45,2.45,0,0,0-2,.89,2.76,2.76,0,0,0-.53.91,4.75,4.75,0,0,0-.26,1.05Z"/><path class="cls-2" d="M141.7,5.24l2.83-.47v3.7h4.35v2.36h-4.35v5a3.54,3.54,0,0,0,.47,2.1,1.83,1.83,0,0,0,1.59.64,5.19,5.19,0,0,0,1.37-.17c.39-.11.71-.21.94-.3l.47,2.25a10.7,10.7,0,0,1-1.29.43,6.9,6.9,0,0,1-1.87.22,6.05,6.05,0,0,1-2.19-.35,3.16,3.16,0,0,1-1.39-1,4,4,0,0,1-.72-1.61,10.17,10.17,0,0,1-.21-2.17Z"/><path class="cls-2" d="M150.42,5.24l2.83-.47v3.7h4.35v2.36h-4.35v5a3.54,3.54,0,0,0,.47,2.1,1.83,1.83,0,0,0,1.59.64,5.19,5.19,0,0,0,1.37-.17c.4-.11.71-.21.95-.3l.46,2.25a10.47,10.47,0,0,1-1.28.43,7,7,0,0,1-1.88.22,6,6,0,0,1-2.18-.35,3.19,3.19,0,0,1-1.4-1,4,4,0,0,1-.72-1.61,10.17,10.17,0,0,1-.21-2.17Z"/><path class="cls-2" d="M162.69,4.89a1.59,1.59,0,0,1-.52,1.26,1.73,1.73,0,0,1-1.21.47,1.77,1.77,0,0,1-1.24-.47,1.59,1.59,0,0,1-.52-1.26,1.63,1.63,0,0,1,.52-1.29A1.77,1.77,0,0,1,161,3.13a1.73,1.73,0,0,1,1.21.47A1.63,1.63,0,0,1,162.69,4.89Zm-.31,15.82h-2.83V8.47h2.83Z"/><path class="cls-2" d="M165,5.24l2.84-.47v3.7h4.35v2.36h-4.35v5a3.63,3.63,0,0,0,.46,2.1,1.86,1.86,0,0,0,1.6.64,5.19,5.19,0,0,0,1.37-.17c.39-.11.71-.21.94-.3l.47,2.25a11.35,11.35,0,0,1-1.29.43,6.9,6.9,0,0,1-1.87.22,6.05,6.05,0,0,1-2.19-.35,3.16,3.16,0,0,1-1.39-1,4,4,0,0,1-.73-1.61,10.17,10.17,0,0,1-.21-2.17Z"/><path class="cls-2" d="M46.29,37.82c-.16-.45-.32-.91-.49-1.35s-.33-.91-.49-1.38H40.4c-.15.47-.31.93-.47,1.38s-.33.91-.48,1.35h-2.2c.44-1.24.85-2.38,1.24-3.43s.77-2,1.15-3,.74-1.83,1.11-2.68.75-1.68,1.14-2.51h2c.39.83.77,1.66,1.14,2.51s.74,1.75,1.11,2.68.76,1.94,1.16,3,.81,2.19,1.24,3.43Zm-3.43-9.36c-.26.59-.55,1.31-.88,2.16s-.68,1.77-1,2.76h3.82c-.36-1-.71-1.92-1-2.78S43.1,29,42.86,28.46Z"/><path class="cls-2" d="M54.42,30.88c-.17-.05-.4-.11-.7-.17a5.19,5.19,0,0,0-1-.09,4.53,4.53,0,0,0-.71.06l-.53.12v7h-2V29.48a11,11,0,0,1,1.47-.41,9.06,9.06,0,0,1,2-.2l.47,0,.54.07a4.35,4.35,0,0,1,.52.1,3,3,0,0,1,.4.11Z"/><path class="cls-2" d="M55.45,26.75l2-.34v2.65H60.6v1.69H57.48v3.57a2.53,2.53,0,0,0,.34,1.51,1.31,1.31,0,0,0,1.13.45,4.22,4.22,0,0,0,1-.11c.28-.08.51-.16.67-.22L61,37.56a8.83,8.83,0,0,1-.92.31,5.29,5.29,0,0,1-1.34.16,4.19,4.19,0,0,1-1.57-.26,2.27,2.27,0,0,1-1-.73,2.9,2.9,0,0,1-.52-1.15,7.21,7.21,0,0,1-.15-1.55Z"/><path class="cls-2" d="M65,34.74a3.32,3.32,0,0,1,.19-1.16,3.38,3.38,0,0,1,.52-.93,4,4,0,0,1,.75-.74,8.51,8.51,0,0,1,.9-.57,5.07,5.07,0,0,1-.81-1.14,2.72,2.72,0,0,1-.31-1.28,2.83,2.83,0,0,1,.86-2.19,3.22,3.22,0,0,1,2.27-.79,3.86,3.86,0,0,1,1.28.2,2.64,2.64,0,0,1,.93.55,2.41,2.41,0,0,1,.57.84,2.79,2.79,0,0,1,.19,1,2.73,2.73,0,0,1-.18,1,3,3,0,0,1-.47.87,5.29,5.29,0,0,1-.7.72,5.09,5.09,0,0,1-.85.58L72.46,34a5.13,5.13,0,0,0,.39-1A10.79,10.79,0,0,0,73.08,32l1.69.22a7.52,7.52,0,0,1-.35,1.49,8,8,0,0,1-.7,1.55c.37.41.72.84,1.06,1.28a9.37,9.37,0,0,1,.85,1.31H73.52c-.12-.19-.26-.39-.43-.62a6.57,6.57,0,0,0-.55-.62,5.56,5.56,0,0,1-1.57,1,5.75,5.75,0,0,1-3.89.08,3.45,3.45,0,0,1-1.22-.77,2.8,2.8,0,0,1-.65-1A3.42,3.42,0,0,1,65,34.74ZM67,34.61a1.75,1.75,0,0,0,.11.58,1.59,1.59,0,0,0,.35.56,1.85,1.85,0,0,0,.64.43,2.44,2.44,0,0,0,1,.17,3.7,3.7,0,0,0,1.36-.24,2.87,2.87,0,0,0,1-.67l-3-3c-.17.09-.34.2-.52.32a2.27,2.27,0,0,0-.48.45,2.25,2.25,0,0,0-.37.6A2.16,2.16,0,0,0,67,34.61Zm3.64-6a1.2,1.2,0,0,0-.32-.83,1.19,1.19,0,0,0-.92-.34,1.22,1.22,0,0,0-1,.38,1.43,1.43,0,0,0-.34,1,1.94,1.94,0,0,0,.27,1,3.61,3.61,0,0,0,.74.91,4.87,4.87,0,0,0,.59-.36,2.69,2.69,0,0,0,.49-.46,1.92,1.92,0,0,0,.33-.55A1.67,1.67,0,0,0,70.6,28.62Z"/><path class="cls-2" d="M89.87,32a6.77,6.77,0,0,1-.47,2.62,4.92,4.92,0,0,1-1.33,1.86A5.55,5.55,0,0,1,86,37.6,9.46,9.46,0,0,1,83.3,38q-.7,0-1.59-.06A11.09,11.09,0,0,1,80,37.66V26.38a9.93,9.93,0,0,1,1.71-.24c.6,0,1.14-.05,1.6-.05a9.64,9.64,0,0,1,2.67.35,5.37,5.37,0,0,1,2.07,1.07,4.7,4.7,0,0,1,1.33,1.84A6.91,6.91,0,0,1,89.87,32Zm-7.74,4.07.48,0h.83A4.24,4.24,0,0,0,86.61,35a4.16,4.16,0,0,0,1-3,4.22,4.22,0,0,0-1-3,4.25,4.25,0,0,0-3.17-1,13.26,13.26,0,0,0-1.34,0Z"/><path class="cls-2" d="M90.88,33.48a5.54,5.54,0,0,1,.34-2A4.33,4.33,0,0,1,92.13,30a3.83,3.83,0,0,1,1.31-.88A4.18,4.18,0,0,1,95,28.84,3.62,3.62,0,0,1,97.77,30a4.86,4.86,0,0,1,1,3.36c0,.11,0,.23,0,.37s0,.27,0,.38H93a2.32,2.32,0,0,0,.75,1.63,2.81,2.81,0,0,0,1.92.58A6.31,6.31,0,0,0,97,36.15a5.64,5.64,0,0,0,1-.29l.27,1.66a2.76,2.76,0,0,1-.46.18c-.2.06-.42.12-.67.17s-.52.09-.82.12a6.4,6.4,0,0,1-.88,0,5.41,5.41,0,0,1-2-.34,3.8,3.8,0,0,1-1.4-1,3.74,3.74,0,0,1-.82-1.44A5.84,5.84,0,0,1,90.88,33.48Zm5.88-.9a2.63,2.63,0,0,0-.12-.8,1.75,1.75,0,0,0-.34-.65,1.67,1.67,0,0,0-.55-.44,1.87,1.87,0,0,0-.78-.16,1.74,1.74,0,0,0-.82.18,1.85,1.85,0,0,0-.6.46,2.22,2.22,0,0,0-.38.65,3.36,3.36,0,0,0-.18.76Z"/><path class="cls-2" d="M102.6,36.37a2.59,2.59,0,0,0,1.17-.2.67.67,0,0,0,.37-.66.86.86,0,0,0-.39-.72,5.66,5.66,0,0,0-1.3-.62,9.78,9.78,0,0,1-1-.43,3.21,3.21,0,0,1-.79-.53,2.24,2.24,0,0,1-.53-.72,2.56,2.56,0,0,1-.19-1.05,2.25,2.25,0,0,1,.89-1.9,3.76,3.76,0,0,1,2.41-.7,7.72,7.72,0,0,1,1.47.14,7.57,7.57,0,0,1,1.06.28l-.37,1.64a4.76,4.76,0,0,0-.85-.27,4.88,4.88,0,0,0-1.21-.13,2.13,2.13,0,0,0-1,.21.69.69,0,0,0-.38.65.92.92,0,0,0,.07.38.86.86,0,0,0,.27.31,3.17,3.17,0,0,0,.48.29c.2.09.45.19.74.29a9.82,9.82,0,0,1,1.22.53,3.38,3.38,0,0,1,.83.58,2,2,0,0,1,.48.75,3,3,0,0,1,.15,1,2.18,2.18,0,0,1-.93,1.91,4.65,4.65,0,0,1-2.66.64,7.23,7.23,0,0,1-1.86-.19,9.57,9.57,0,0,1-1-.31l.36-1.69a9.2,9.2,0,0,0,1.08.35A5.61,5.61,0,0,0,102.6,36.37Z"/><path class="cls-2" d="M110.2,26.49a1.16,1.16,0,0,1-.37.91,1.24,1.24,0,0,1-.87.33,1.29,1.29,0,0,1-.89-.33,1.19,1.19,0,0,1-.37-.91,1.21,1.21,0,0,1,.37-.92,1.29,1.29,0,0,1,.89-.33,1.24,1.24,0,0,1,.87.33A1.18,1.18,0,0,1,110.2,26.49ZM110,37.82h-2V29.06h2Z"/><path class="cls-2" d="M119.3,36.94A4,4,0,0,1,118.24,40,4.71,4.71,0,0,1,115,41a9,9,0,0,1-1.57-.14,9.24,9.24,0,0,1-1.38-.35l.37-1.73a6.08,6.08,0,0,0,1.18.35,7.15,7.15,0,0,0,1.43.14,2.51,2.51,0,0,0,1.75-.5,2,2,0,0,0,.52-1.5v-.33a5.28,5.28,0,0,1-.8.3,3.91,3.91,0,0,1-1.13.15,4.17,4.17,0,0,1-1.53-.27,3.24,3.24,0,0,1-1.19-.78,3.73,3.73,0,0,1-.78-1.3,5.52,5.52,0,0,1-.27-1.81,5.28,5.28,0,0,1,.29-1.76,3.8,3.8,0,0,1,.86-1.37,4,4,0,0,1,1.36-.89,5,5,0,0,1,1.83-.32,11.37,11.37,0,0,1,1.88.15c.59.11,1.09.21,1.5.32Zm-5.64-3.73a2.65,2.65,0,0,0,.56,1.89,1.89,1.89,0,0,0,1.45.6,3,3,0,0,0,.91-.14,2.4,2.4,0,0,0,.7-.32V30.7l-.54-.09a6,6,0,0,0-.8,0,2,2,0,0,0-1.7.73A2.94,2.94,0,0,0,113.66,33.21Z"/><path class="cls-2" d="M121.14,29.34c.39-.11.9-.21,1.53-.32a13.06,13.06,0,0,1,2.07-.15,4.7,4.7,0,0,1,1.8.3,2.81,2.81,0,0,1,1.15.82,3.19,3.19,0,0,1,.6,1.27,7,7,0,0,1,.17,1.64v4.92h-2V33.21a5.87,5.87,0,0,0-.1-1.19,2.14,2.14,0,0,0-.3-.81,1.21,1.21,0,0,0-.57-.45,2.5,2.5,0,0,0-.88-.14,5.63,5.63,0,0,0-.8.05l-.62.08v7.07h-2Z"/></g></g></svg>