<svg xmlns="http://www.w3.org/2000/svg" viewBox="0 0 102 102"><defs><style>.cls-1{fill:#fff;}.cls-2{opacity:0.2;}</style></defs><title>society6</title><g id="Layer_2" data-name="Layer 2"><g id="Layer_1-2" data-name="Layer 1"><path class="cls-1" d="M65.09,47.69c-2.89.39-6,2.7-6.5,4.87a38.19,38.19,0,0,0-1.23,9.56c-.08,3.15,0,5.94,1.42,8.48,1.58,2.83,4.31,3.55,7.11,1.9a8,8,0,0,0,2.52-2.33A23.09,23.09,0,0,0,72.3,52.88C71.72,49,68.89,47.17,65.09,47.69Z"/><path class="cls-1" d="M39,49.82a11,11,0,0,1-3.77-6.49c-.4-1.7-1.22-1.84-2.57-1.32a7.73,7.73,0,0,0-3.28,2.22,4.74,4.74,0,0,0,1.46,7.52,56.07,56.07,0,0,0,5.4,2.13c4.41,1.67,6.37,3.1,8.57,6.33l.09-.11v-.46A35.84,35.84,0,0,1,46.55,49.2,5.76,5.76,0,0,1,39,49.82Z"/><path class="cls-1" d="M51,0a51,51,0,1,0,51,51A51,51,0,0,0,51,0ZM85.67,58.11c-1.48,9.21-9.79,16.88-19.44,18a24.6,24.6,0,0,1-11.15-.87,15.09,15.09,0,0,1-6.49-4.35V71a13.83,13.83,0,0,1-2.33-3.85,16.78,16.78,0,0,1-.82-2.42c-1,6.59-5.22,9.53-10.78,10.8A33.73,33.73,0,0,1,19,75.36a11.92,11.92,0,0,1-4.13-1.85c-2.84-2-3.54-5.32-1.65-7.73A6,6,0,0,1,21.52,65a11.48,11.48,0,0,1,3.82,6.68c.43,2,1.55,2.14,3.14,1.8,2.45-.53,4.45-1.6,5.28-4.18a4.56,4.56,0,0,0-2.19-5.91A31.88,31.88,0,0,0,26,61.13,18.72,18.72,0,0,1,20.29,58a9.33,9.33,0,0,1-.78-13.87A14.46,14.46,0,0,1,26,40.33,30.94,30.94,0,0,1,42,40a8.94,8.94,0,0,1,3.13,1.41,5.76,5.76,0,0,1,2.58,4.68c3.28-7.3,9.21-12.88,17-17.22a48.52,48.52,0,0,1,16.75-5.21c.77-.11,1.94-.66,2,.95,0,1.22.5,2.41-1.56,2.67C72.9,28.44,63.7,34.83,60.3,46.84c2.85-1.75,5.43-3.2,8.41-3.71a19,19,0,0,1,8,0C83.13,44.76,86.82,50.92,85.67,58.11Z"/><path class="cls-2" d="M76.66,43.12a19,19,0,0,0-8,0c-3,.51-5.56,2-8.41,3.71,3.4-12,12.6-18.4,21.66-19.54,2.06-.26,1.6-1.45,1.56-2.67,0-1.61-1.22-1.06-2-.95a48.52,48.52,0,0,0-16.75,5.21C57,33.23,51,38.81,47.75,46.11a5.76,5.76,0,0,0-2.58-4.68A8.94,8.94,0,0,0,42,40a30.94,30.94,0,0,0-16,.31,14.46,14.46,0,0,0-6.52,3.82A9.33,9.33,0,0,0,20.29,58,18.72,18.72,0,0,0,26,61.13a31.88,31.88,0,0,1,5.56,2.25,4.56,4.56,0,0,1,2.19,5.91c-.83,2.58-2.83,3.65-5.28,4.18-1.59.34-2.71.2-3.14-1.8A11.48,11.48,0,0,0,21.52,65a6,6,0,0,0-8.34.79c-1.89,2.41-1.19,5.7,1.65,7.73A11.92,11.92,0,0,0,19,75.36a33.73,33.73,0,0,0,15.7.17c5.56-1.27,9.74-4.21,10.78-10.8a16.78,16.78,0,0,0,.82,2.42A13.83,13.83,0,0,0,48.59,71v-.1a15.09,15.09,0,0,0,6.49,4.35,24.6,24.6,0,0,0,11.15.87c9.65-1.13,18-8.8,19.44-18C86.82,50.92,83.13,44.76,76.66,43.12ZM44.87,59.64v.46l-.09.11c-2.2-3.23-4.16-4.66-8.57-6.33a56.07,56.07,0,0,1-5.4-2.13,4.74,4.74,0,0,1-1.46-7.52A7.73,7.73,0,0,1,32.63,42c1.35-.52,2.17-.38,2.57,1.32A11,11,0,0,0,39,49.82a5.76,5.76,0,0,0,7.58-.62A35.84,35.84,0,0,0,44.87,59.64ZM68.41,70.17a8,8,0,0,1-2.52,2.33c-2.8,1.65-5.53.93-7.11-1.9-1.42-2.54-1.5-5.33-1.42-8.48a38.19,38.19,0,0,1,1.23-9.56c.47-2.17,3.61-4.48,6.5-4.87,3.8-.52,6.63,1.35,7.21,5.19A23.09,23.09,0,0,1,68.41,70.17Z"/></g></g></svg>