<svg xmlns="http://www.w3.org/2000/svg" viewBox="0 0 58.84 113.52"><defs><style>.cls-1{fill:#fff;}</style></defs><title>tentacle_bug</title><g id="Layer_2" data-name="Layer 2"><g id="Layer_2-2" data-name="Layer 2"><path class="cls-1" d="M58.09,103.32a16.53,16.53,0,0,1-3.54,5.11,16.21,16.21,0,0,1-7.42,4.38,18.22,18.22,0,0,1-3.44.55l-.3,0c-.71,0-1.45.06-2.19.08l-2.36.05a25.4,25.4,0,0,1-14.13-3.84,25.22,25.22,0,0,1-8.33-8C5.46,83.56,9.51,65.23,12.21,52.85a58.55,58.55,0,0,0,1.16-7.79,33.35,33.35,0,0,0-2.91-15.53H0V25.84A49.3,49.3,0,0,0,14.32,15.6,58.68,58.68,0,0,0,24.81,0h3.06c3,8.15,4.55,14.37,5,22.23,0,.05,0,.1,0,.15L32.91,24H51.26v5.54H32.92c0,.48,0,1,0,1.48,0,.09,0,.18,0,.28-.13,3.51-.4,7.42-.8,11.91a91.83,91.83,0,0,1-3.63,15.94,67.59,67.59,0,0,0-3.08,17.61C25.14,81.87,25,87.11,26.79,92a22.6,22.6,0,0,0,8.1,10.18c3.4,2.42,7.9,4.07,12,2.38,2-.85,4.63-2.75,4.82-5.16a9.06,9.06,0,0,0-.93-4.66c-.76-1.53-2.19-2.62-3.25-4-.7-.88-1.35-1.71-1.83-2.46a16.58,16.58,0,0,1-1.7-4c-1.35-4.69.79-7.85,3.43-9a6.11,6.11,0,0,1,1.29-.43c3.05-.67,6.28.88,5.86,4.69-.58-3-3.53-3.53-5.5-2.2a3.57,3.57,0,0,0-.49.38,4.43,4.43,0,0,0-1.15,4.51c1.45,4.69,6.4,7,9.31,10.66a10.63,10.63,0,0,1,2,8.13A9.73,9.73,0,0,1,58.09,103.32Z"/></g></g></svg>