<svg xmlns="http://www.w3.org/2000/svg" viewBox="0 0 409.86 478.86"><defs><style>.cls-1{fill:#fff;}</style></defs><title>top</title><g id="Layer_2" data-name="Layer 2"><g id="Layer_6" data-name="Layer 6"><rect class="cls-1" width="409.86" height="57" rx="13.93" ry="13.93"/><path class="cls-1" d="M373.07,266.39,242.34,135.66l-30.49-30.49a10.1,10.1,0,0,0-14.28,0l-30.49,30.49L36.35,266.39a10.1,10.1,0,0,0,0,14.28L59.7,304A10.09,10.09,0,0,0,74,304L176.43,201.58V464.92a13.94,13.94,0,0,0,13.93,13.94h29.13a13.94,13.94,0,0,0,13.94-13.94V202l102,102a10.09,10.09,0,0,0,14.28,0l23.35-23.35A10.1,10.1,0,0,0,373.07,266.39Z"/></g></g></svg>