<svg xmlns="http://www.w3.org/2000/svg" viewBox="0 0 102 102"><defs><style>.cls-1{fill:#fff;}.cls-2{opacity:0.2;}</style></defs><title>tumblr</title><g id="Layer_2" data-name="Layer 2"><g id="Layer_1-2" data-name="Layer 1"><path class="cls-1" d="M51,0a51,51,0,1,0,51,51A51,51,0,0,0,51,0Zm5.77,87C42,87.25,36.34,76.44,36.34,68.84V46.62H29.46V37.83c10.32-3.72,12.8-13,13.38-18.32a.54.54,0,0,1,.49-.51h10V36.32H66.9v10.3H53.24V67.79c0,2.87,1.1,6.84,6.54,6.7a16.17,16.17,0,0,0,5.49-1.17L68.54,83C67.32,84.82,61.76,86.91,56.77,87Z"/><path class="cls-2" d="M59.78,74.49c-5.44.14-6.5-3.83-6.54-6.7V46.62H66.9V36.32H53.29V19h-10a.54.54,0,0,0-.49.51c-.58,5.3-3.06,14.6-13.38,18.32v8.79h6.88V68.84c0,7.6,5.61,18.41,20.43,18.16,5-.09,10.55-2.18,11.77-4l-3.27-9.69A16.17,16.17,0,0,1,59.78,74.49Z"/></g></g></svg>